<?xml version="1.0" encoding="UTF-8"?>
<svg width="328px" height="319px" viewBox="0 0 328 319" version="1.1" xmlns="http://www.w3.org/2000/svg" xmlns:xlink="http://www.w3.org/1999/xlink">
    <title>3921094</title>
    <defs>
        <path d="M49.6931451,12.8712397 C56.7675498,27.3118997 52.1178221,48.030748 39.3080805,59.1477938 C26.4990865,70.2648397 10.3801803,67.5703221 3.30652323,53.1289105 C-3.76713379,38.6882505 0.881846167,17.9686506 13.6915878,6.85160476 C26.5005818,-4.26468947 42.6194881,-1.5701719 49.6931451,12.8712397" id="path-1"></path>
        <linearGradient x1="44.7326745%" y1="100.221248%" x2="54.6337754%" y2="5.81633465%" id="linearGradient-3">
            <stop stop-color="#ED9939" offset="0%"></stop>
            <stop stop-color="#F9C737" offset="100%"></stop>
        </linearGradient>
        <path d="M40.3173025,10.3354568 C46.0564734,21.931924 42.2843448,38.5700703 31.8917922,47.4974133 C21.4992396,56.4247563 8.42186828,54.2610104 2.68269745,42.6645432 C-3.05647337,31.068076 0.715655201,14.4299297 11.1082078,5.5025867 C21.5007604,-3.42475627 34.5781317,-1.26101043 40.3173025,10.3354568" id="path-4"></path>
        <linearGradient x1="83.7824577%" y1="-9.11259992%" x2="27.3965747%" y2="89.5535252%" id="linearGradient-6">
            <stop stop-color="#D5702E" offset="0%"></stop>
            <stop stop-color="#F9C737" offset="100%"></stop>
        </linearGradient>
        <path d="M36.5668766,9.55542647 C41.7720543,20.2772724 38.3510834,35.6591486 28.9251694,43.9127646 C19.4992553,52.1663806 7.63830109,50.1656642 2.4331234,39.4445735 C-2.77205428,28.7227276 0.648916574,13.3408514 10.0748306,5.08723539 C19.5007447,-3.1663806 31.3616989,-1.1656642 36.5668766,9.55542647" id="path-7"></path>
        <linearGradient x1="44.4710578%" y1="102.451351%" x2="56.9488559%" y2="-15.9116911%" id="linearGradient-9">
            <stop stop-color="#D5702E" offset="0%"></stop>
            <stop stop-color="#F9C737" offset="100%"></stop>
        </linearGradient>
        <path d="M15.1441452,18.3072508 L16.5809642,21.1588011 C17.1934788,20.4060811 17.4601207,19.5662512 17.059396,18.7703485 C16.7249508,18.1069722 16.053775,18.0593222 15.1441452,18.3072508 Z M9.55761618,12.526719 L8.22059744,9.87395826 C7.68274261,10.5172323 7.55018349,11.1962437 7.88462863,11.85962 C8.20155159,12.4894925 8.79882948,12.6473329 9.55761618,12.526719 Z M17.4959269,28.2809761 C12.7832215,31.5948796 8.20078975,31.915772 5.53894162,27.4031751 L12.6803739,21.3776929 C13.2426074,22.3217571 13.8894045,22.57862 14.5544856,22.44386 L12.9165425,19.1932416 C9.08680274,21.0069169 3.70673076,23.9388765 0.849091278,18.2670461 C-1.40669931,13.7901866 1.07916516,8.1957874 5.39647866,4.26913562 L4.0434614,1.582871 L5.91909681,0 L7.2728759,2.68626462 C12.2080368,-0.957465716 16.4765929,-0.872589284 19.0713997,3.50748133 L11.8393091,9.60965007 C11.2976451,8.79066695 10.7575048,8.48987679 10.2303156,8.55613997 L11.8514985,11.7732546 C15.7345666,10.151668 21.3401414,6.98220333 24.1474999,12.5535221 C26.1191264,16.4667723 24.7242082,22.0864856 19.405083,26.7643682 L20.7421017,29.417129 L18.8657045,31 L17.4959269,28.2809761 L17.4959269,28.2809761 Z" id="path-10"></path>
        <linearGradient x1="49.3792018%" y1="92.0479381%" x2="50.8204238%" y2="-5.74176814%" id="linearGradient-12">
            <stop stop-color="#F5BB37" offset="0%"></stop>
            <stop stop-color="#F9E83B" offset="100%"></stop>
        </linearGradient>
        <path d="M39.3800332,10.140533 C44.985347,21.5183134 41.3006241,37.8427577 31.149685,46.6014049 C20.9987458,55.3600521 8.22579565,53.2372473 2.62048183,41.859467 C-2.98558784,30.4816866 0.699135045,14.1572423 10.8500742,5.39859509 C21.0002575,-3.36005211 33.7739635,-1.23724733 39.3800332,10.140533" id="path-13"></path>
        <linearGradient x1="44.6715561%" y1="100.221941%" x2="54.6878807%" y2="5.81683735%" id="linearGradient-15">
            <stop stop-color="#ED9939" offset="0%"></stop>
            <stop stop-color="#F9C737" offset="100%"></stop>
        </linearGradient>
        <path d="M30.9410817,7.99589957 C35.3457521,16.9665785 32.4507439,29.8376175 24.4751416,36.7431364 C16.4987949,43.6494019 6.4634118,41.9754725 2.05874139,33.0047936 C-2.34592903,24.033368 0.549823537,11.162329 8.52542584,4.25681009 C16.5002837,-2.64945542 26.5371557,-0.975525984 30.9410817,7.99589957" id="path-16"></path>
        <linearGradient x1="83.2480241%" y1="-9.11350961%" x2="27.7543759%" y2="89.5529413%" id="linearGradient-18">
            <stop stop-color="#D5702E" offset="0%"></stop>
            <stop stop-color="#F9C737" offset="100%"></stop>
        </linearGradient>
        <path d="M29.0657298,7.4100836 C33.2037872,15.7250952 30.4838451,27.6543872 22.991545,34.0550333 C15.4992449,40.4556794 6.07157234,38.9037132 1.93427015,30.5894488 C-2.20378716,22.2751844 0.516154892,10.3458924 8.00845501,3.94524634 C15.5,-2.45539975 24.9284277,-0.904180829 29.0657298,7.4100836" id="path-19"></path>
        <linearGradient x1="44.1899691%" y1="102.452914%" x2="57.2988514%" y2="-15.9109021%" id="linearGradient-21">
            <stop stop-color="#D5702E" offset="0%"></stop>
            <stop stop-color="#F9C737" offset="100%"></stop>
        </linearGradient>
        <path d="M11.5091552,14.7634659 L12.6016007,17.0636988 C13.0669426,16.456278 13.270068,15.7791531 12.9650106,15.1372633 C12.7109191,14.6026105 12.201259,14.5635456 11.5091552,14.7634659 Z M7.2634645,10.1024879 L6.24783736,7.96311048 C5.8393706,8.4816778 5.7381772,9.02935229 5.99226865,9.56400515 C6.23380324,10.0718488 6.68732692,10.1997671 7.2634645,10.1024879 Z M13.296659,22.8070041 C9.71574237,25.4802684 6.23306461,25.7391691 4.20993536,22.0992401 L9.63670811,17.2398738 C10.0636408,18.0012562 10.5555737,18.2088363 11.0615407,18.1000674 L9.81619713,15.4788896 C6.90596375,16.9411422 2.81760289,19.3057173 0.645268784,14.7312948 C-1.06910981,11.121239 0.82032597,6.60962682 4.10135558,3.44307249 L3.07317161,1.27611986 L4.49874278,0 L5.5276654,2.16618665 C9.27773009,-0.772106134 12.5218278,-0.703934065 14.493991,2.82875789 L8.99778632,7.74940254 C8.58562636,7.08912924 8.17642096,6.84631411 7.77534057,6.89993259 L9.00738861,9.4950671 C11.9589857,8.18677615 16.2179719,5.63070654 18.3518969,10.1239353 C19.8505932,13.2797659 18.7906478,17.8120596 14.7480825,21.5845027 L15.7637096,23.7238801 L14.3373998,25 L13.296659,22.8070041 L13.296659,22.8070041 Z" id="path-22"></path>
        <linearGradient x1="49.4477997%" y1="92.0491452%" x2="50.7277115%" y2="-5.741467%" id="linearGradient-24">
            <stop stop-color="#F5BB37" offset="0%"></stop>
            <stop stop-color="#F9E83B" offset="100%"></stop>
        </linearGradient>
        <path d="M33.7538077,8.77537677 C38.5591364,18.6213018 35.4007043,32.7485917 26.6999762,40.3278671 C17.999248,47.9079014 7.05076903,46.0707543 2.24619234,36.2240704 C-2.55913636,26.3781454 0.599295652,12.2516143 9.30002383,4.67158005 C18.000752,-2.90769542 28.949231,-1.07054825 33.7538077,8.77537677" id="path-25"></path>
        <linearGradient x1="44.7727115%" y1="100.220981%" x2="54.5992118%" y2="5.81611867%" id="linearGradient-27">
            <stop stop-color="#ED9939" offset="0%"></stop>
            <stop stop-color="#F9C737" offset="100%"></stop>
        </linearGradient>
        <path d="M27.1905342,7.0210115 C31.0616085,14.8975868 28.5170871,26.1991901 21.5084533,32.2624256 C14.4990601,38.3264222 5.68017898,36.8562702 1.80910474,28.9796949 C-2.06121017,21.1023587 0.482551837,9.80151638 7.49194499,3.73751983 C14.5005788,-2.32647671 23.31946,-0.856324709 27.1905342,7.0210115" id="path-28"></path>
        <linearGradient x1="83.3023951%" y1="-9.11201482%" x2="27.7156058%" y2="89.5538025%" id="linearGradient-30">
            <stop stop-color="#D5702E" offset="0%"></stop>
            <stop stop-color="#F9C737" offset="100%"></stop>
        </linearGradient>
        <path d="M25.315757,6.43536646 C28.9189044,13.6555946 26.5509037,24.0151834 20.0247792,29.5738401 C13.4994181,35.1324969 5.28851683,33.7850122 1.684606,26.5647841 C-1.91930483,19.3438027 0.449459271,8.98421395 6.97482038,3.42555719 C13.5001815,-2.13234637 21.7118461,-0.784861688 25.315757,6.43536646" id="path-31"></path>
        <linearGradient x1="44.1577639%" y1="102.451863%" x2="57.3432698%" y2="-15.9121025%" id="linearGradient-33">
            <stop stop-color="#D5702E" offset="0%"></stop>
            <stop stop-color="#F9C737" offset="100%"></stop>
        </linearGradient>
        <path d="M10.2969804,12.4017924 L11.2750538,14.3338312 C11.6915981,13.8237491 11.8726375,13.2546677 11.6003112,12.7154593 C11.3732447,12.2666169 10.9160433,12.2337565 10.2969804,12.4017924 Z M6.49898699,8.48693055 L5.58995403,6.68932039 C5.22403949,7.12471994 5.13351975,7.58476475 5.36135333,8.034354 C5.57691305,8.46153846 5.98271763,8.56833458 6.49898699,8.48693055 Z M11.8964181,19.1583271 C8.69293996,21.403286 5.57614593,21.6206124 3.76651829,18.5638536 L8.62236524,14.4824496 C9.00438922,15.1209858 9.44471405,15.2957431 9.89654562,15.2038835 L8.78345969,13.0022405 C6.17833232,14.2307692 2.52072122,16.2165795 0.577615319,12.3749066 C-0.956617527,9.3420463 0.733339953,5.55190441 3.66986162,2.89245706 L2.74932191,1.07244212 L4.02503652,0 L4.94557623,1.82001494 C8.30094346,-0.648244959 11.203712,-0.590739358 12.9688469,2.3764003 L8.05086351,6.51008215 C7.68188051,5.95519044 7.31519886,5.75130695 6.95695549,5.79686333 L8.05853467,7.97610157 C10.6997165,6.87677371 14.511518,4.73039582 16.4201037,8.50485437 C17.7610232,11.1553398 16.8128673,14.9626587 13.1951462,18.1306945 L14.1041792,19.9283047 L12.8284646,21 L11.8964181,19.1583271 L11.8964181,19.1583271 Z" id="path-34"></path>
        <linearGradient x1="49.3716474%" y1="92.0480814%" x2="50.8238979%" y2="-5.73953555%" id="linearGradient-36">
            <stop stop-color="#F5BB37" offset="0%"></stop>
            <stop stop-color="#F9E83B" offset="100%"></stop>
        </linearGradient>
        <path d="M0.999335106,45 L0.405585106,18.287588 C0.42087766,18.3042994 0.436170213,18.3217704 0.451462766,18.3392414 L1,45 L0.999335106,45 Z M0.116356383,2.03347344 C0.0917553191,2.02815618 0.0678191489,2.02359852 0.0438829787,2.01904087 L0,0.0250670988 L0.0744680851,0 L0.116356383,2.03347344 L0.116356383,2.03347344 Z" id="path-37"></path>
    </defs>
    <g id="Page-1" stroke="none" stroke-width="1" fill="none" fill-rule="evenodd">
        <g id="3921094">
            <path d="M41.9820704,235.166268 C40.416555,234.623672 38.7081411,235.452775 38.1662591,237.017602 C37.6236697,238.583136 38.4527633,240.291571 40.0182788,240.834167 C41.5830868,241.376055 43.2915007,240.546244 43.8340901,238.981417 C44.3759721,237.416591 43.5468785,235.708156 41.9820704,235.166268" id="Fill-6" fill="#FCE5C8"></path>
            <path d="M73.5237933,119.999919 C75.4571913,119.986103 77.0129665,118.408837 76.9999185,116.476207 C76.9868706,114.542809 75.4088371,112.987034 73.4754392,113.000081 C71.5428087,113.013129 69.9870335,114.591163 70.0000815,116.523793 C70.0131294,118.457191 71.5911629,120.012966 73.5237933,119.999919" id="Fill-14" fill="#FCE5C8"></path>
            <path d="M243.459747,69 C242.34894,60.9104754 242.337369,51.5148532 254.310166,43 C254.099576,48.1182466 255.870695,53.9109966 254.430503,58.0122184 C252.989541,62.1134403 247.677726,66.8199085 243.459747,69" id="Fill-15" fill="#3D4D29"></path>
            <path d="M222.507314,120.725336 C221.306677,122.747221 222.369336,124.116088 224.310174,121.755353 C226.251013,119.393869 233.34201,108.594776 236.337122,98.8735727 C239.332233,89.1516213 241.752564,74.318483 245,68 C242.940241,69.8715336 239.369587,80.2779189 238.184959,86.4460509 C236.056592,97.5301377 231.01087,110.943543 222.507314,120.725336" id="Fill-16" fill="#3D4D29"></path>
            <path d="M226,55 C229.352358,58.1223451 234.744062,58.379677 237.888792,62.8925309 C241.03426,67.406912 240.15276,74.7863062 238.541973,82 C235.176315,80.4155378 228.239585,78.985322 227.299713,70.8438587 C226.359841,62.7016318 226.997506,57.6909132 226,55" id="Fill-17" fill="#3D4D29"></path>
            <path d="M204,81.8612696 C206.174601,82.5489782 212.569857,89.6705004 216.907582,93.2346252 C221.245307,96.7994976 225.483561,98.1704299 230.298749,95.8651109 C235.114703,93.5597918 236,93.2465854 236,93.2465854 C236,93.2465854 234.987686,90.475568 233.123742,85.6930028 C231.259798,80.9096901 228.849525,77.4771269 223.465053,77.0263787 C218.080582,76.5756305 211.930944,82.0533795 204,81.8612696" id="Fill-18" fill="#3D4D29"></path>
            <path d="M211,116 C214.432791,113.79521 218.974718,113.672307 221.738084,113.286469 C224.500692,112.900631 228.373195,110.709993 230.326884,106.683271 C232.279814,102.655804 234,100.12104 234,100.12104 C234,100.12104 229.148757,97.9207189 222.872239,99.6852961 C218.314391,100.967203 216.231821,105.466912 214.430516,109.226228 C212.629211,112.9848 212.438163,114.206373 211,116" id="Fill-19" fill="#3D4D29"></path>
            <path d="M234.962442,99 C235.550163,100.34279 240.739432,102.267684 242.523354,106.853081 C244.307277,111.439238 240.489596,118.746691 240.759476,123 C237.490143,119.683681 233.55005,114.880945 234.041846,109.680768 C234.534358,104.48059 235.529403,100.481097 234.962442,99" id="Fill-20" fill="#3D4D29"></path>
            <path d="M237,93.561341 C238.256162,95.0431566 246.368244,104.846513 257.904501,99.3327807 C264.277631,95.1555289 272,93.2864035 272,93.2864035 C272,93.2864035 267.321932,90.7992306 264.2572,87.1306506 C261.193224,83.4620707 256.43343,82.2057487 251.665312,83.4875417 C246.897194,84.7693347 239.884632,92.3537137 237,93.561341" id="Fill-21" fill="#3D4D29"></path>
            <path d="M240,81.7112641 C241.301947,82.1105525 248.061737,86.0926238 256.232032,77.6789922 C264.403075,69.266133 266,68.0489599 266,68.0489599 C266,68.0489599 260.277125,67.7091401 256.889369,66.3181955 C253.501613,64.9280232 248.686132,68.3671549 246.447593,71.3297665 C244.209053,74.2923781 241.83126,79.6538092 240,81.7112641" id="Fill-22" fill="#3D4D29"></path>
            <path d="M56,129 C48.3866795,128.235964 40.1187587,126.058879 38,112 C42.4068366,113.403146 48.2952169,112.966662 51.2567925,115.375319 C54.2176122,117.783215 55.9742998,124.237532 56,129" id="Fill-23" fill="#3D4D29"></path>
            <path d="M90.8890038,162.096012 C92.1137525,163.784048 93.7812261,163.025567 92.5914491,160.507139 C91.401672,157.98871 85.1603649,148.281367 78.0283992,142.978814 C70.8964335,137.676261 59.0544686,131.765863 55,127 C55.7105923,129.525998 63.1818565,135.571893 68.0265335,138.209922 C76.7329634,142.950806 86.1648671,151.192661 90.8890038,162.096012" id="Fill-24" fill="#3D4D29"></path>
            <path d="M36,143.638312 C40.2355766,140.80647 42.9567361,135.151222 48.2905083,132.860751 C53.625029,130.569513 59.5524407,133.210418 65,136.584396 C62.0789644,139.785842 57.6345285,146.809085 50.2076719,145.923415 C42.7808152,145.036979 38.7735615,143.203529 36,143.638312" id="Fill-25" fill="#3D4D29"></path>
            <path d="M49,172 C50.5561576,169.941139 59.5487685,165.087399 64.5519704,161.49606 C69.5551724,157.905486 72.6150246,153.900232 72.7480296,148.439009 C72.8802956,142.977022 73,142 73,142 C73,142 70.1544335,142.38025 65.1889163,143.157583 C60.2241379,143.934151 56.1866995,145.587514 53.4165025,150.980643 C50.6463054,156.373773 52.6716749,163.945883 49,172" id="Fill-26" fill="#3D4D29"></path>
            <path d="M82.0723511,173 C81.6871798,169.007466 83.6108143,164.377089 84.5100411,161.486489 C85.409268,158.597392 85.2329781,154.163333 82.5997396,151.247911 C79.9650196,148.332488 78.5265529,146 78.5265529,146 C78.5265529,146 74.4407741,150.404725 73.1711902,157.175786 C72.2490012,162.09274 75.2377824,165.24961 77.7065824,167.948407 C80.1753824,170.647955 81.153125,171.125585 82.0723511,173" id="Fill-27" fill="#3D4D29"></path>
            <path d="M78,144.213399 C79.4713083,143.899403 83.7069625,138.929376 88.6235654,138.086468 C93.5401683,137.243559 98.117062,142.824822 102,143.483413 C97.4751339,146.150559 91.3129304,149.18634 86.9686305,147.527479 C82.6235654,145.867889 79.5830145,143.9504 78,144.213399" id="Fill-28" fill="#3D4D29"></path>
            <path d="M74.3736372,141 C76.2422348,140.056815 88.5106685,134.01815 88.9086731,120.88506 C88.1373987,113.364681 90,105 90,105 C90,105 85.6991525,109.222274 81.0954917,111.511019 C76.4918309,113.799763 73.2335903,118.393226 72.194731,123.58835 C71.1558717,128.783473 74.6239828,137.7559 74.3736372,141" id="Fill-29" fill="#3D4D29"></path>
            <path d="M66.0842196,136 C67.0053519,134.742951 73.389065,128.646605 70.0329841,118.287521 C66.6769033,107.928436 66.3794543,106 66.3794543,106 C66.3794543,106 63.511987,111.846757 60.8201843,115.039069 C58.1276435,118.230623 58.8332545,123.991655 60.3035235,126.979138 C61.7730544,129.965862 65.1881822,133.639904 66.0842196,136" id="Fill-30" fill="#3D4D29"></path>
            <path d="M52,232.427734 C49.7761031,239.836043 46.0532801,247.616985 32,246.961241 C34.2201289,242.860732 34.9435924,236.929188 37.8570406,234.463068 C40.7704887,231.996182 47.3743547,231.518721 52,232.427734" id="Fill-31" fill="#3D4D29"></path>
            <path d="M91.8209956,204.155952 C93.7324077,203.266713 93.3172146,201.461839 90.5936999,202.154977 C87.8701853,202.847361 77.039358,207.160807 70.3787459,213.218035 C63.7181337,219.276016 55.5155933,229.897849 50,233 C52.6351433,232.785798 60.0979543,226.535488 63.6709007,222.232601 C70.0915389,214.500981 80.1140727,206.729387 91.8209956,204.155952" id="Fill-32" fill="#3D4D29"></path>
            <path d="M63.3585748,255 C61.4216543,250.272682 56.4027448,246.498366 55.2191994,240.789394 C54.0356541,235.080422 57.8256157,229.73335 62.2412095,225 C64.8053012,228.501382 70.8246067,234.240513 68.4605941,241.406132 C66.0973511,248.571752 63.4870872,252.17718 63.3585748,255" id="Fill-33" fill="#3D4D29"></path>
            <path d="M93,248 C91.2987334,246.032949 88.3642776,236.03143 85.8597199,230.293501 C83.3559258,224.554813 80.0534222,220.695111 74.7342915,219.502429 C69.4151609,218.310507 68.4835876,218 68.4835876,218 C68.4835876,218 68.2804741,220.941846 68.0384177,226.095202 C67.7963614,231.249317 68.5988889,235.637413 73.3186056,239.47434 C78.0383223,243.311266 85.8581928,242.739599 93,248" id="Fill-34" fill="#3D4D29"></path>
            <path d="M100,215.292867 C96.0351688,214.881322 91.9029884,211.952088 89.2649972,210.43554 C86.6277532,208.919773 82.2736857,208.202107 78.9147482,210.334021 C75.5558107,212.465934 73,213.48035 73,213.48035 C73,213.48035 76.4851965,218.598504 82.8317654,221.285652 C87.439098,223.236392 91.1021029,220.786644 94.2182346,218.78202 C97.3343664,216.776616 97.9925567,215.862939 100,215.292867" id="Fill-35" fill="#3D4D29"></path>
            <path d="M71.9825162,213 C71.9487049,211.537194 67.9136456,206.51284 68.0014112,201.663071 C68.0891768,196.812559 74.3349219,193.56675 75.6859366,190 C77.4369322,194.840111 79.2447596,201.313156 76.8398384,205.119868 C74.4349172,208.927323 72.0192051,211.439872 71.9825162,213" id="Fill-36" fill="#3D4D29"></path>
            <path d="M68,216 C67.448315,214.008554 63.9817679,200.967099 51.2635382,198.081428 C43.7840493,197.39835 36,194 36,194 C36,194 39.2670335,198.97343 40.5895662,203.871291 C41.9128545,208.769894 45.7466878,212.803166 50.6045391,214.798316 C55.4616347,216.793467 64.8878917,215.140596 68,216" id="Fill-37" fill="#3D4D29"></path>
            <path d="M61,224.553696 C59.9645265,223.387693 55.3258752,215.81056 44.6264824,217.16047 C33.9270895,218.509627 32,218.433501 32,218.433501 C32,218.433501 37.0941997,222.440269 39.6521638,225.755877 C42.2101279,229.072238 47.9299574,229.483769 51.1143005,228.59212 C54.2993928,227.699717 58.5349438,224.99236 61,224.553696" id="Fill-38" fill="#3D4D29"></path>
            <path d="M262,149 C266.48037,148.372592 271.648367,146.758943 276,137 C273.191674,138.028068 269.95628,137.802788 267.739992,139.50743 C265.523705,141.213539 263.082319,145.70299 262,149" id="Fill-39" fill="#3D4D29"></path>
            <path d="M235.225676,174.341039 C234.170755,175.55369 233.405244,175.03878 234.623614,173.238833 C235.841233,171.439633 241.462228,164.478645 246.614618,160.627267 C251.767009,156.775889 259.686785,152.430495 263,149 C262.048547,150.7992 256.543017,155.181906 253.254544,157.115431 C247.34489,160.589955 240.261853,166.554703 235.225676,174.341039" id="Fill-40" fill="#3D4D29"></path>
            <path d="M271,160.09952 C269.211037,158.132021 268.915832,154.124521 266.378449,152.559222 C263.840296,150.992397 259.865423,152.962186 256,155.449415 C256.957299,157.699294 257.931555,162.660779 262.372745,161.926592 C266.814706,161.192405 269.51318,159.826299 271,160.09952" id="Fill-41" fill="#3D4D29"></path>
            <path d="M256.858288,180 C256.423214,178.557859 252.36252,175.230714 250.298765,172.745386 C248.235769,170.260815 247.371695,167.455263 248.496965,163.573973 C249.622236,159.692682 249.769538,159 249.769538,159 C249.769538,159 251.308623,159.230894 253.969182,159.715393 C256.629741,160.199892 258.568972,161.320296 258.962286,165.116799 C259.355599,168.913302 256.535589,174.323792 256.858288,180" id="Fill-42" fill="#3D4D29"></path>
            <path d="M238,181 C239.130643,178.192915 239.071217,174.966971 239.208592,172.950572 C239.345967,170.933439 240.455772,167.819191 242.641425,165.737392 C244.827849,163.655593 246.190023,162 246.190023,162 C246.190023,162 247.550654,165.037825 246.744926,169.774598 C246.160696,173.21291 243.714957,175.468866 241.673625,177.396349 C239.632294,179.323832 238.958538,179.671411 238,181" id="Fill-43" fill="#3D4D29"></path>
            <path d="M247,161.204262 C246.264793,161.002783 245.084075,157.577649 242.580439,157.048413 C240.076802,156.519887 236.282015,160.482061 234,160.990723 C235.869029,162.800482 238.551172,164.84861 241.316518,163.634064 C244.081864,162.419518 246.190667,161.039674 247,161.204262" id="Fill-44" fill="#3D4D29"></path>
            <path d="M249.58428,158 C248.716783,157.364068 242.98253,153.297954 245.747091,144.108064 C247.910355,138.832345 248.737922,133 248.737922,133 C248.737922,133 250.267787,135.899496 252.415391,137.44115 C254.562213,138.982805 255.40309,142.156537 254.8198,145.780166 C254.237292,149.403795 250.179315,155.731989 249.58428,158" id="Fill-45" fill="#3D4D29"></path>
            <path d="M255.870303,154 C255.615541,153.132176 253.249001,148.94903 257.599547,141.651624 C261.949309,134.354219 262.567008,133 262.567008,133 C262.567008,133 262.917403,137.054525 263.773402,139.253652 C264.629401,141.452779 262.893886,145.495477 261.343368,147.606639 C259.793633,149.717801 256.938734,152.335316 255.870303,154" id="Fill-46" fill="#3D4D29"></path>
            <path d="M97.3923384,173.574803 C95.93472,174.204205 93.4181737,181.056777 87.4160834,185.083008 C81.413993,189.108493 71.3163322,194.642603 58.8077931,192.537389 C46.3000033,190.432175 38.3756553,184.317882 30.2399713,176.419042 C22.1042874,168.520202 19.8485386,165.771417 17,164.865348 C20.485544,163.787759 26.843608,157.923287 32.5189521,154.183419 C38.1935467,150.444297 50.5147313,145.071266 66.6234755,147.697004 C82.7314702,150.323487 92.8621054,162.761625 94.4231435,166.694639 C95.9849311,170.627653 97.0356154,171.509114 97.753558,172.205631 C98.4715006,172.902895 97.3923384,173.574803 97.3923384,173.574803" id="Fill-47" fill="#829B54"></path>
            <path d="M88.9285638,173.773915 C87.5859251,179.489438 80.6015285,187.402146 76,192 C76.7779429,191.738911 77.5328521,191.456128 78.2676998,191.15913 C79.2024201,190.187341 80.0390617,189.289615 80.5970704,188.666444 C84.2913703,184.54214 88.9174185,178.630613 89.9732512,173.889123 L90,173.77167 L89.9725082,173.654966 C88.0889502,165.473688 85.7201996,159.471641 83.5951597,155.244847 C82.9955419,154.820671 82.3714043,154.406221 81.7286912,154 C84.0275979,158.18116 86.8050101,164.598405 88.9285638,173.773915" id="Fill-48" fill="#AECD63"></path>
            <path d="M74.8812536,171.414735 C72.427205,178.108331 62.799092,188.757304 59,192.795633 C59.1273857,192.818256 59.2532728,192.843897 59.3814079,192.865766 C59.6773923,192.915538 59.9711288,192.957769 60.264116,193 C64.4371226,188.54087 73.5924098,178.267451 75.9378058,171.589691 L76,171.410964 L75.9355578,171.231483 C73.4747653,164.433818 71.1068894,159.143644 69.039494,155.108331 C67.1953982,151.508148 65.5963327,148.916981 64.380923,147.135742 C63.9118438,147.083708 63.4465112,147.03846 62.984176,147 C65.4104994,150.429752 69.9911403,157.950621 74.8812536,171.414735" id="Fill-49" fill="#AECD63"></path>
            <path d="M59.8583962,170.582109 C57.7672414,176.181504 50.5794226,184.540514 46,189.511452 C46.336666,189.677831 46.6756274,189.841184 47.0184146,190 C51.7049582,184.906547 58.8805346,176.506698 60.9364926,170.758319 L61,170.578328 L60.9341971,170.399092 C58.4222098,163.582109 56.0035707,158.276901 53.8932871,154.230121 C52.5565701,151.667891 51.346868,149.617653 50.3123852,148 C49.9168027,148.059745 49.5265762,148.124028 49.1401755,148.192092 C51.7699959,152.239628 55.6998062,159.337943 59.8583962,170.582109" id="Fill-50" fill="#AECD63"></path>
            <path d="M48,168.942736 L47.9341317,168.76395 C45.4188832,161.963287 42.9978415,156.671368 40.8854616,152.634724 C40.5859908,152.062156 40.294945,151.52278 40.0077287,151 C39.6615374,151.135787 39.3214733,151.273083 38.9890684,151.411887 C41.2799053,155.566213 44.0165019,161.292651 46.8564963,168.945754 C45.3139535,173.062361 40.9980504,178.674889 37,183.328609 C37.2826208,183.554921 37.5667734,183.778969 37.8524579,184 C41.9539061,179.226334 46.3900571,173.427477 47.9356636,169.121522 L48,168.942736" id="Fill-51" fill="#AECD63"></path>
            <path d="M34,166.424922 L33.9331779,166.250879 C32.4250194,162.336026 30.950272,158.938894 29.5524476,156 C29.2509713,156.209292 28.9494949,156.419317 28.6472416,156.633015 C29.990676,159.461755 31.4024864,162.709813 32.8407148,166.428594 C31.9479409,168.71391 30.1406371,171.473621 28,174.263441 C28.2571873,174.502841 28.5213675,174.74885 28.7925408,175 C31.0761461,172.029529 33.013986,169.063464 33.9355089,166.599699 L34,166.424922" id="Fill-52" fill="#AECD63"></path>
            <path d="M107.149344,175 C107.149344,175 83.6666575,173.168155 71.7244138,171.868771 C59.7821702,170.569388 24,166 24,166 C24,166 67.1799868,170.378023 72.1919226,170.987908 C77.2046137,171.597793 104.428881,172.908132 107.146323,173.249959 C108.159133,173.376319 108.402328,174.939377 107.149344,175" id="Fill-53" fill="#AECD63"></path>
            <path d="M236.244844,130.138002 C236.606153,129.4465 235.394484,126.062364 236.42701,122.669334 C237.458781,119.276303 239.589596,114.039267 245.079523,110.954559 C250.570963,107.869852 255.571083,107.730514 261.2205,108.204115 C266.869162,108.677716 268.613723,109.020132 270,108.479826 C268.999976,109.971781 268.415684,114.173417 267.418683,117.355958 C266.422439,120.538499 263.383061,126.40478 256.339053,130.410008 C249.295044,134.415236 241.432422,132.837307 239.578258,131.828588 C237.72485,130.81987 237.040026,130.811717 236.540392,130.770212 C236.04227,130.727966 236.244844,130.138002 236.244844,130.138002" id="Fill-54" fill="#829B54"></path>
            <path d="M239.589266,128.424328 C238.249244,125.727744 238.461734,120.319884 238.804385,117 C238.576212,117.357276 238.364506,117.715325 238.166129,118.073375 C238.10889,118.762407 238.067333,119.390347 238.047731,119.818769 C237.915218,122.655325 237.994412,126.501842 239.129785,128.720511 L239.158012,128.775417 L239.206626,128.812537 C242.65979,131.428695 245.589961,133.025611 247.837184,134 C248.218255,133.971387 248.607167,133.931947 249,133.881681 C246.696323,132.981531 243.465058,131.354456 239.589266,128.424328" id="Fill-55" fill="#AECD63"></path>
            <path d="M245.386503,124.087708 C244.192914,120.779489 244.562802,113.722303 244.760957,111 L244.586892,111.093537 C244.453235,111.16687 244.323463,111.243196 244.193691,111.319523 C243.983881,114.318696 243.679267,121.084046 244.910932,124.351857 L244.94357,124.439408 L245.027494,124.487299 C248.201849,126.292938 250.852455,127.556063 252.976981,128.438305 C254.873046,129.224765 256.344828,129.705919 257.402429,130 C257.605245,129.87279 257.804177,129.744083 258,129.613131 C255.929093,129.074357 251.680041,127.659328 245.386503,124.087708" id="Fill-56" fill="#AECD63"></path>
            <path d="M252.302268,120.400106 C251.367586,117.64351 251.453752,112.282052 251.617321,109 C251.444259,109.040362 251.270467,109.082219 251.097404,109.127814 C250.932374,112.489096 250.863004,117.861766 251.856104,120.663955 L251.886773,120.751407 L251.964906,120.799244 C254.948588,122.60284 257.43937,123.864536 259.435793,124.745032 C260.699805,125.303377 261.762276,125.706252 262.630508,126 C262.756106,125.855742 262.879514,125.712232 263,125.567974 C260.81372,124.845937 257.227606,123.370471 252.302268,120.400106" id="Fill-57" fill="#AECD63"></path>
            <path d="M256.933869,116.70924 L257.016135,116.756488 C260.156836,118.537907 262.778571,119.784088 264.881342,120.654495 C265.178882,120.777784 265.463351,120.891476 265.740902,121 C265.830087,120.844227 265.916966,120.689931 266,120.53785 C263.791899,119.677778 260.909528,118.364416 257.371338,116.362258 C256.645555,114.35567 256.504089,110.950821 256.548682,108 C256.367236,108.001477 256.187328,108.003691 256.00742,108.007383 C255.96129,111.033506 256.115058,114.545403 256.900809,116.622863 L256.933869,116.70924" id="Fill-58" fill="#AECD63"></path>
            <path d="M262.836593,113.15362 L262.917603,113.203061 C264.746751,114.322935 266.39571,115.242692 267.867508,116 C267.912177,115.818717 267.956088,115.637434 268,115.454581 C266.584227,114.725525 265.007192,113.846576 263.267382,112.783991 C262.860063,111.568374 262.639748,109.867765 262.533754,108.049441 C262.360379,108.033745 262.181703,108.017265 262,108 C262.111293,109.936826 262.349779,111.762998 262.804795,113.061016 L262.836593,113.15362" id="Fill-59" fill="#AECD63"></path>
            <path d="M232.165672,133.247585 C232.165672,133.247585 241.771899,126.688049 246.777481,123.495454 C251.783062,120.302858 267,111 267,111 C267,111 249.006902,122.669179 246.88516,123.98347 C244.763418,125.299251 233.891577,133.220763 232.737435,133.929318 C232.307475,134.193815 231.704621,133.66035 232.165672,133.247585" id="Fill-60" fill="#AECD63"></path>
            <path d="M202.882419,120.830427 C202.171976,120.152256 197.63728,120.365118 193.889468,117.916087 C190.141655,115.467055 184.54729,111.049986 182.758442,103.427291 C180.969594,95.8053442 182.577834,89.8295284 185.16031,83.3055001 C187.743535,76.7807248 188.779223,74.8380806 188.61735,73 C190.070461,74.7245543 194.95888,76.9345829 198.463133,79.2663535 C201.968136,81.5973773 208.003156,87.3192526 210.355562,97.1138843 C212.708718,106.91001 208.000158,115.658257 206.117634,117.490363 C204.235109,119.322468 203.981808,120.13209 203.753986,120.707938 C203.526165,121.283785 202.882419,120.830427 202.882419,120.830427" id="Fill-61" fill="#829B54"></path>
            <path d="M200.478928,116.217071 C196.904331,116.837757 190.722233,114.637779 187,113.035181 C187.335538,113.434471 187.677786,113.815117 188.023763,114.17945 C188.801465,114.495619 189.513551,114.771393 190.001945,114.949287 C193.23653,116.128513 197.712605,117.418825 200.665337,116.869607 L200.73841,116.855624 L200.798061,116.811345 C205.001232,113.651206 207.846593,110.744314 209.740517,108.423927 C209.837451,107.96016 209.923945,107.484741 210,107 C208.173929,109.41283 205.190624,112.666965 200.478928,116.217071" id="Fill-62" fill="#AECD63"></path>
            <path d="M198.822609,107.352225 C194.467578,107.540949 186.177915,104.638862 183,103.455117 C183.017114,103.532222 183.032739,103.607858 183.051341,103.684963 C183.093009,103.862672 183.139141,104.036709 183.185273,104.210746 C186.689834,105.504642 194.655083,108.229754 198.974399,107.984486 L199.090473,107.977877 L199.175297,107.900038 C202.419434,104.937002 204.836167,102.377849 206.617466,100.279858 C208.206796,98.4080421 209.285695,96.9085329 210,95.8136416 C209.918153,95.5382665 209.831841,95.2680318 209.743296,95 C208.389093,97.157472 205.242428,101.475353 198.822609,107.352225" id="Fill-63" fill="#AECD63"></path>
            <path d="M196.264441,98.3379213 C192.537007,98.4987109 185.998534,96.4587867 182.038183,95.0747939 C182.022146,95.3032053 182.009164,95.5316167 182,95.7622822 C186.056572,97.1770805 192.614901,99.1997236 196.420992,98.9840852 L196.539359,98.977323 L196.62718,98.8976795 C199.955983,95.8667203 202.43712,93.2475027 204.264563,91.1016377 C205.422274,89.7424396 206.314995,88.5763392 207,87.6108502 C206.870941,87.4034767 206.740355,87.19986 206.609005,87 C204.904512,89.4373901 201.752115,93.3301516 196.264441,98.3379213" id="Fill-64" fill="#AECD63"></path>
            <path d="M193.793434,90.9786131 L193.878626,90.9004111 C197.108507,87.9521225 199.51388,85.405076 201.287352,83.3170094 C201.538483,83.0202803 201.774056,82.7367067 202,82.45898 C201.843692,82.302576 201.688124,82.1483645 201.533297,82 C199.735379,84.2123127 197.158882,87.03197 193.526747,90.3559205 C190.861354,90.4713963 186.714364,89.4233433 183.179273,88.324861 C183.117787,88.5316943 183.057782,88.7385277 183,88.945361 C186.626949,90.071616 190.906542,91.1423257 193.67861,90.9844599 L193.793434,90.9786131" id="Fill-65" fill="#AECD63"></path>
            <path d="M191.063379,82.9791184 L191.148417,82.9050846 C193.038321,81.238627 194.640853,79.7069667 196,78.3205801 C195.812329,78.21372 195.624658,78.10686 195.434788,78 C194.126225,79.3340042 192.594069,80.7986151 190.8002,82.3840547 C189.295901,82.4469136 187.314362,82.1479849 185.240453,81.6856232 C185.162746,81.8721044 185.081373,82.0641731 185,82.2604323 C187.20953,82.7549219 189.337687,83.0734066 190.94975,82.9854043 L191.063379,82.9791184" id="Fill-66" fill="#AECD63"></path>
            <path d="M204.923511,126.665982 C204.923511,126.665982 200.280503,112.81566 198.14185,105.680302 C196.001654,98.5456999 190,77 190,77 C190,77 197.927368,102.718684 198.787612,105.729361 C199.646314,108.740038 205.518352,124.595717 205.978178,126.231249 C206.149456,126.840328 205.266837,127.366385 204.923511,126.665982" id="Fill-67" fill="#AECD63"></path>
            <path d="M85.742893,183.205384 C85.5345381,184.179848 88.1234429,187.976006 87.9953993,192.512119 C87.8681134,197.04899 87.0195406,204.226932 81.385623,209.832374 C75.7517054,215.437816 69.7382031,217.235717 62.7336888,218.487189 C55.7291746,219.737903 53.5016709,219.880581 52,221 C52.719014,218.827948 52.0356098,213.435005 52.1901712,209.170589 C52.3447327,204.906172 54.0850647,196.653589 61.2971762,189.403549 C68.5085301,182.15351 78.5618453,181.550162 81.142416,182.19601 C83.7229866,182.842617 84.557164,182.630117 85.1746523,182.519313 C85.7928982,182.409269 85.742893,183.205384 85.742893,183.205384" id="Fill-68" fill="#58814B"></path>
            <path d="M81.9624073,187.951689 C84.4275794,190.676658 85.9221141,197.032689 86.5879806,201 C86.7438381,200.513478 86.8796348,200.032163 87,199.555312 C86.8456856,198.736259 86.6913713,197.992342 86.5771786,197.487966 C85.8187235,194.147777 84.4800463,189.697663 82.4122337,187.465911 L82.3620815,187.410861 L82.2910969,187.382592 C77.3376056,185.400796 73.3346907,184.444119 70.3448498,184 C69.9004244,184.150271 69.4513695,184.316909 69,184.494705 C72.0315059,184.834675 76.4024605,185.734071 81.9624073,187.951689" id="Fill-69" fill="#45653B"></path>
            <path d="M76.476618,194.396005 C78.9367752,198.017614 80.7923681,206.651805 81.4433221,210 L81.6146652,209.833412 C81.7471006,209.702681 81.8735503,209.570457 82,209.438232 C81.2734755,205.752379 79.4365881,197.49021 76.9442574,193.928364 L76.8776655,193.832744 L76.7654321,193.802115 C72.4841003,192.6106 68.9884025,191.910631 66.2289562,191.507234 C63.7673027,191.147912 61.8974935,191.026146 60.5701459,191 C60.3756079,191.217386 60.1855593,191.434772 60,191.652906 C62.5866068,191.658882 67.9917695,192.04435 76.476618,194.396005" id="Fill-70" fill="#45653B"></path>
            <path d="M69.8721771,200.366627 C71.9165983,203.406287 73.5414027,209.954636 74.4007602,214 C74.6005068,213.893266 74.8009987,213.784277 75,213.67153 C74.1175375,209.528452 72.4688828,202.971835 70.338004,199.896096 L70.2716703,199.799885 L70.1591265,199.768316 C65.895133,198.569439 62.4137289,197.865897 59.6649773,197.460008 C57.9239025,197.202945 56.4824476,197.066897 55.3167623,197 C55.2079451,197.217226 55.1021093,197.432949 55,197.64792 C57.9321011,197.797497 62.8333458,198.395808 69.8721771,200.366627" id="Fill-71" fill="#45653B"></path>
            <path d="M65.0214952,206.475977 L64.9076082,206.44389 C60.5927218,205.254406 57.0697652,204.555192 54.2882059,204.15223 C53.8937494,204.095517 53.5189026,204.04552 53.1538607,204 C53.0995569,204.218644 53.0475158,204.434303 53,204.646232 C55.9037428,205.00442 59.7570472,205.702887 64.6172339,207.037885 C66.1422645,209.262384 67.4365042,213.379312 68.3596681,217 C68.5738663,216.941794 68.7873103,216.882843 69,216.820906 C68.052701,213.107686 66.7079287,208.8639 65.0893749,206.570748 L65.0214952,206.475977" id="Fill-72" fill="#45653B"></path>
            <path d="M59.2668455,212.792135 L59.148493,212.758427 C56.4784598,212.001605 54.101152,211.430177 52,211 C52.0031561,211.239165 52.0063121,211.479133 52.0110462,211.719101 C54.0332965,212.135634 56.3064542,212.680578 58.8439325,213.396469 C59.7536689,214.761637 60.5852927,216.788122 61.3111883,219 C61.53448,218.960674 61.764873,218.919743 62,218.877207 C61.2283415,216.520064 60.3328073,214.344302 59.337857,212.894864 L59.2668455,212.792135" id="Fill-73" fill="#45653B"></path>
            <path d="M89.890712,178.83113 C89.890712,178.83113 80.4092179,189.872764 75.3943007,195.35166 C70.3793835,200.831305 55,217 55,217 C55,217 72.9636554,197.068915 75.1022582,194.793216 C77.240861,192.517516 87.8068671,179.415775 88.9712345,178.18585 C89.4062561,177.727715 90.3128047,178.182855 89.890712,178.83113" id="Fill-74" fill="#45653B"></path>
            <path d="M271.954691,255.869391 C273.669392,261.853895 226.50265,280.419262 166.605021,297.336288 C106.708146,314.253314 56.7607659,323.115862 55.0453099,317.130609 C53.3306083,311.146105 100.496596,292.580738 160.39498,275.663712 C220.292609,258.746686 270.239235,249.884138 271.954691,255.869391" id="Fill-75" fill="#F5EEE6"></path>
            <path d="M225.674897,97.7465461 C225.674897,97.7465461 100.295584,132.95607 82.6760681,140.706703 C74.4228948,144.337787 73.8765122,148.773935 74.0170754,154.296317 L79.133272,293.58911 C79.2738352,299.112247 82.3579117,307.055854 90.9934773,305.883686 L229.807907,260.032683 C234.470675,258.680355 238.136652,253.106714 237.996089,247.584331 L237.677933,101.919616 C237.53737,96.3979872 230.337664,96.3934644 225.674897,97.7465461" id="Fill-76" fill="#5B3429"></path>
            <path d="M229.720483,98.2983388 L82.1618196,141.291354 C77.5170357,142.645471 73.8638518,148.222621 74.0038956,153.749227 L77.6141628,296.146475 C77.7542066,301.673081 81.6340204,305.055733 86.2795572,303.701616 L233.837468,260.708601 C238.483005,259.355238 242.135436,253.777334 241.996145,248.250728 L238.385878,105.854234 C238.245834,100.327628 234.36602,96.9442222 229.720483,98.2983388" id="Fill-77" fill="#42261D"></path>
            <path d="M212.503801,112.49411 L207.024132,114.093251 L207.218894,114.764905 L212.698564,113.165764 L212.503801,112.49411 M201.544462,115.692391 L196.065544,117.291531 L196.260307,117.963185 L201.739224,116.364045 L201.544462,115.692391 M190.585875,118.890671 L185.106205,120.489812 L185.300967,121.161466 L190.780637,119.562325 L190.585875,118.890671 M179.627287,122.088952 L174.147617,123.688092 L174.34238,124.359746 L179.82205,122.760606 L179.627287,122.088952 M168.667948,125.287233 L163.18903,126.886373 L163.383792,127.558027 L168.86271,125.958887 L168.667948,125.287233 M157.70936,128.485513 L152.22969,130.084653 L152.424453,130.756307 L157.904123,129.157167 L157.70936,128.485513 M146.750021,131.683794 L141.271103,133.282934 L141.465866,133.954588 L146.945535,132.355448 L146.750021,131.683794 M135.791433,134.882074 L130.311764,136.481215 L130.507278,137.152869 L135.986196,135.553728 L135.791433,134.882074 M124.832846,138.080355 L119.353176,139.67874 L119.547939,140.351149 L125.027608,138.752009 L124.832846,138.080355 M113.873506,141.277881 L108.394589,142.877021 L108.589351,143.54943 L114.069021,141.950289 L113.873506,141.277881 M102.914919,144.476161 L97.4352493,146.075302 L97.6300118,146.74771 L103.109681,145.14857 L102.914919,144.476161 M91.9563315,147.674442 L88.7100389,148.622304 C87.9415166,148.84644 87.2038253,149.186795 86.5112528,149.620729 L86.8804744,150.214652 C87.5234163,149.81166 88.2032052,149.499228 88.9048014,149.293958 L92.151094,148.346851 L91.9563315,147.674442 M82.5573482,153.909504 C81.6151187,155.619581 81.0428628,157.568887 81,159.536305 L81.6978364,159.551398 C81.7369393,157.710764 82.2761081,155.866357 83.167955,154.24835 L82.5573482,153.909504 M81.1331003,165.277814 L81.2782322,171.002722 L81.9753165,170.985364 L81.8309366,165.259702 L81.1331003,165.277814 M81.4233641,176.727629 L81.567744,182.452536 L82.2655804,182.435179 L82.1204485,176.710271 L81.4233641,176.727629 M81.7128759,188.177443 L81.8580078,193.90235 L82.5550922,193.884993 L82.4099603,188.160086 L81.7128759,188.177443 M82.0023878,199.627257 L82.1475197,205.352919 L82.8446041,205.334807 L82.7002241,199.6099 L82.0023878,199.627257 M82.2926516,211.077826 L82.4370315,216.802733 L83.1348679,216.784621 L82.989736,211.059714 L82.2926516,211.077826 M82.5821635,222.527641 L82.7272954,228.252548 L83.4243797,228.234436 L83.2799998,222.509529 L82.5821635,222.527641 M82.8716753,233.977455 L83.0168072,239.702362 L83.7146436,239.68425 L83.5695117,233.959343 L82.8716753,233.977455 M83.1619391,245.427269 L83.307071,251.152176 L84.0041554,251.134819 L83.8590235,245.409912 L83.1619391,245.427269 M83.451451,256.877083 L83.5965829,262.601991 L84.2936673,262.584633 L84.1492873,256.859726 L83.451451,256.877083 M83.7417148,268.326898 L83.8860947,274.052559 L84.5839311,274.034447 L84.4387992,268.30954 L83.7417148,268.326898 M84.0312267,279.777467 L84.1763586,285.502374 L84.8734429,285.484262 L84.728311,279.759355 L84.0312267,279.777467 M86.0811209,291.021257 C87.2090892,292.278533 88.777717,293.002259 90.5350915,293 C90.8704741,293 91.2126245,292.974336 91.5592867,292.921509 L91.4547616,292.229479 C91.1411865,292.277023 90.8343791,292.300418 90.5350915,292.300418 C88.9672157,292.298154 87.605382,291.668007 86.5992343,290.552608 L86.0811209,291.021257 M97.0983627,291.372177 L102.578032,289.773037 L102.38327,289.100628 L96.9036002,290.699768 L97.0983627,291.372177 M108.057702,288.173896 L113.53662,286.574756 L113.341857,285.903102 L107.86294,287.501488 L108.057702,288.173896 M119.01629,284.975616 L124.495959,283.376476 L124.301197,282.704822 L118.821527,284.303962 L119.01629,284.975616 M129.974877,281.77809 L135.454547,280.17895 L135.259784,279.506541 L129.780115,281.105681 L129.974877,281.77809 M140.934217,278.579809 L146.413134,276.980669 L146.218372,276.30826 L140.739454,277.907401 L140.934217,278.579809 M151.892804,275.381529 L157.372474,273.782389 L157.177711,273.10998 L151.698041,274.70912 L151.892804,275.381529 M162.852143,272.183248 L168.331061,270.584108 L168.136299,269.911699 L162.656629,271.51084 L162.852143,272.183248 M173.810731,268.984968 L179.290401,267.385827 L179.095638,266.713419 L173.615968,268.312559 L173.810731,268.984968 M184.769318,265.786687 L190.248988,264.187547 L190.054225,263.515138 L184.574556,265.114278 L184.769318,265.786687 M195.728658,262.588407 L201.207575,260.989266 L201.012813,260.316858 L195.533143,261.915998 L195.728658,262.588407 M206.687245,259.390126 L212.166915,257.790986 L211.972152,257.118577 L206.492483,258.717717 L206.687245,259.390126 M217.645833,256.191845 L223.125502,254.592705 L222.93074,253.920296 L217.45107,255.519437 L217.645833,256.191845 M228.620212,252.860743 C230.32946,252.026836 231.820634,250.629192 232.93281,248.933454 L232.350027,248.548574 C231.29876,250.152997 229.891808,251.463854 228.31566,252.231351 L228.620212,252.860743 M234.932322,243.45004 C234.976689,243.044784 235,242.636509 235,242.228989 C235,242.137674 234.998496,242.046359 234.99624,241.955799 L234.887955,237.679853 L234.190871,237.697211 L234.299156,241.973156 C234.301412,242.058434 234.302164,242.143711 234.302164,242.228989 C234.302164,242.610096 234.280356,242.991957 234.238997,243.373064 L234.932322,243.45004 M234.743575,231.954191 L234.598443,226.229284 L233.901359,226.247396 L234.045739,231.972303 L234.743575,231.954191 M234.454063,220.504377 L234.308931,214.77947 L233.611095,214.797582 L233.756227,220.522489 L234.454063,220.504377 M234.1638,209.054563 L234.018668,203.329656 L233.321583,203.347768 L233.466715,209.072675 L234.1638,209.054563 M233.874288,197.604749 L233.729156,191.879841 L233.032071,191.897199 L233.176451,197.622861 L233.874288,197.604749 M233.584024,186.154934 L233.439644,180.430027 L232.741808,180.447384 L232.886939,186.172292 L233.584024,186.154934 M233.294512,174.70512 L233.150132,168.980213 L232.452296,168.99757 L232.597428,174.722477 L233.294512,174.70512 M233.005,163.255306 L232.859868,157.529644 L232.162784,157.547756 L232.307164,163.272663 L233.005,163.255306 M232.715488,151.804737 L232.570356,146.07983 L231.873272,146.097942 L232.017652,151.822849 L232.715488,151.804737 M232.425224,140.354922 L232.280093,134.630015 L231.583008,134.648127 L231.72814,140.373035 L232.425224,140.354922 M232.135713,128.905108 L231.990581,123.180201 L231.293496,123.197558 L231.437876,128.92322 L232.135713,128.905108 M231.846201,117.455294 L231.814618,116.217639 C231.771003,114.484168 231.309288,112.969551 230.530238,111.778685 L229.947454,112.162811 C230.646043,113.23142 231.076174,114.61548 231.117533,116.234997 L231.148364,117.472651 L231.846201,117.455294 M225.439341,109 C224.800911,109.001509 224.138418,109.098107 223.462389,109.29583 L217.982719,110.89497 L218.177482,111.567379 L223.657151,109.968238 C224.274526,109.787873 224.871597,109.701841 225.441597,109.699577 L225.439341,109" id="Fill-78" fill="#F1AB5A"></path>
            <path d="M246.563312,154.196909 L203.396395,166.765519 C200.324163,167.660279 197.909785,171.345732 198.002588,174.997463 L198.707592,202.810721 C198.800396,206.462452 201.365952,208.697105 204.437436,207.803094 L247.603605,195.234484 C250.675837,194.339724 253.090215,190.65427 252.997412,187.002539 L252.292408,159.188532 C252.199604,155.537551 249.634048,153.302898 246.563312,154.196909" id="Fill-79" fill="#936945"></path>
            <path d="M233.756181,161.217105 L228.212628,162.825658 L228.409661,163.501265 L233.953214,161.892713 L233.756181,161.217105 M222.669076,164.434211 L217.126284,166.042763 L217.323317,166.71837 L222.866109,165.109818 L222.669076,164.434211 M211.582731,167.651316 L206.109928,169.239372 L206.035375,169.261387 L206.241537,169.934717 L206.306961,169.915739 L211.779764,168.326923 L211.582731,167.651316 M201.693039,173.245951 C201.253328,174.192561 201,175.22419 201,176.259615 L201.002282,176.419028 L201.069989,179.065283 L201.7752,179.047065 L201.707493,176.400051 L201.705972,176.259615 C201.705972,175.338816 201.931913,174.405111 202.333587,173.542004 L201.693039,173.245951 M201.216052,184.823887 L201.362876,190.58249 L202.068847,190.564271 L201.922024,184.805668 L201.216052,184.823887 M201.5097,196.341093 L201.579688,199.068573 C201.609357,200.277834 201.98973,201.321609 202.629517,202.097419 L203.174211,201.649545 C202.645493,201.008856 202.312286,200.125253 202.284899,199.050354 L202.215671,196.322874 L201.5097,196.341093 M208.308482,203 L213.852035,201.391447 L213.655002,200.715081 L208.111449,202.323634 L208.308482,203 M219.394827,199.782895 L224.93838,198.174342 L224.741347,197.497976 L219.197794,199.106528 L219.394827,199.782895 M230.481932,196.565789 L236.024724,194.957237 L235.827691,194.28087 L230.284899,195.889423 L230.481932,196.565789 M241.568277,193.348684 L245.890072,192.094636 C246.321415,191.969383 246.737543,191.793269 247.13237,191.574646 L246.790034,190.959008 C246.437809,191.154099 246.070369,191.308957 245.693039,191.418269 L241.371244,192.673077 L241.568277,193.348684 M250.742107,186.913715 C250.908711,186.314018 251,185.695344 251,185.075152 L250.997718,184.915739 L250.900342,181.073887 L250.19437,181.092105 L250.292507,184.933198 L250.294028,185.075152 C250.294028,185.626265 250.213389,186.182692 250.062001,186.725455 L250.742107,186.913715 M250.753518,175.315283 L250.606695,169.55668 L249.901483,169.57414 L250.048307,175.332743 L250.753518,175.315283 M250.460631,163.798077 L250.421073,162.264676 C250.379992,160.52252 249.603271,159.121204 248.385318,158.378036 L248.016356,158.979251 C249.006086,159.585779 249.674021,160.733553 249.715862,162.282895 L249.75466,163.815536 L250.460631,163.798077 M244.842526,158 L239.298973,159.608553 L239.496006,160.28416 L245.039559,158.675607 L244.842526,158" id="Fill-80" fill="#F1AB5A"></path>
            <path d="M218.997005,183.097156 C219.104896,187.387378 216.284309,191.717181 212.696152,192.768782 C209.107224,193.818831 206.110928,191.193321 206.003036,186.902322 C205.894374,182.6121 208.715732,178.282297 212.30389,177.231472 C215.892047,176.180647 218.889114,178.806933 218.997005,183.097156" id="Fill-81" fill="#F8C55E"></path>
            <path d="M78,287 L77,253 C77.4465517,266.281494 77.812069,278.314428 78,287" id="Fill-82" fill="#3A2019"></path>
            <path d="M150.693637,98.8497679 C157.76728,113.296264 153.117562,134.023485 140.308594,145.145024 C135.527287,149.296333 134.369904,151.522746 129.308971,151.931035 C128.479813,151.997955 123.570655,152.016001 122.754955,151.985925 C115.20206,151.707717 108.307857,147.295494 104.306363,139.123708 C97.23272,124.677212 101.882438,103.949239 114.691406,92.8277002 C119.495143,88.6575932 124.763926,86.4304282 129.846541,86.036426 C130.905233,85.9544675 136.15682,86.036426 136.15682,86.036426 C136.15682,86.036426 146.82448,90.9486707 150.693637,98.8497679" id="Fill-83" fill="#B9692E"></path>
            <g id="Group-86" transform="translate(106.000000, 86.000000)">
                <mask id="mask-2" fill="white">
                    <use xlink:href="#path-1"></use>
                </mask>
                <g id="Clip-85"></g>
                <path d="M49.6931451,12.8712397 C56.7675498,27.3118997 52.1178221,48.030748 39.3080805,59.1477938 C26.4990865,70.2648397 10.3801803,67.5703221 3.30652323,53.1289105 C-3.76713379,38.6882505 0.881846167,17.9686506 13.6915878,6.85160476 C26.5005818,-4.26468947 42.6194881,-1.5701719 49.6931451,12.8712397" id="Fill-84" fill="url(#linearGradient-3)" mask="url(#mask-2)"></path>
            </g>
            <g id="Group-89" transform="translate(111.000000, 93.000000)">
                <mask id="mask-5" fill="white">
                    <use xlink:href="#path-4"></use>
                </mask>
                <g id="Clip-88"></g>
                <path d="M40.3173025,10.3354568 C46.0564734,21.931924 42.2843448,38.5700703 31.8917922,47.4974133 C21.4992396,56.4247563 8.42186828,54.2610104 2.68269745,42.6645432 C-3.05647337,31.068076 0.715655201,14.4299297 11.1082078,5.5025867 C21.5007604,-3.42475627 34.5781317,-1.26101043 40.3173025,10.3354568" id="Fill-87" fill="url(#linearGradient-6)" mask="url(#mask-5)"></path>
            </g>
            <g id="Group-92" transform="translate(113.000000, 95.000000)">
                <mask id="mask-8" fill="white">
                    <use xlink:href="#path-7"></use>
                </mask>
                <g id="Clip-91"></g>
                <path d="M36.5668766,9.55542647 C41.7720543,20.2772724 38.3510834,35.6591486 28.9251694,43.9127646 C19.4992553,52.1663806 7.63830109,50.1656642 2.4331234,39.4445735 C-2.77205428,28.7227276 0.648916574,13.3408514 10.0748306,5.08723539 C19.5007447,-3.1663806 31.3616989,-1.1656642 36.5668766,9.55542647" id="Fill-90" fill="url(#linearGradient-9)" mask="url(#mask-8)"></path>
            </g>
            <g id="Group-95" transform="translate(120.000000, 103.000000)">
                <mask id="mask-11" fill="white">
                    <use xlink:href="#path-10"></use>
                </mask>
                <g id="Clip-94"></g>
                <path d="M15.1441452,18.3072508 L16.5809642,21.1588011 C17.1934788,20.4060811 17.4601207,19.5662512 17.059396,18.7703485 C16.7249508,18.1069722 16.053775,18.0593222 15.1441452,18.3072508 Z M9.55761618,12.526719 L8.22059744,9.87395826 C7.68274261,10.5172323 7.55018349,11.1962437 7.88462863,11.85962 C8.20155159,12.4894925 8.79882948,12.6473329 9.55761618,12.526719 Z M17.4959269,28.2809761 C12.7832215,31.5948796 8.20078975,31.915772 5.53894162,27.4031751 L12.6803739,21.3776929 C13.2426074,22.3217571 13.8894045,22.57862 14.5544856,22.44386 L12.9165425,19.1932416 C9.08680274,21.0069169 3.70673076,23.9388765 0.849091278,18.2670461 C-1.40669931,13.7901866 1.07916516,8.1957874 5.39647866,4.26913562 L4.0434614,1.582871 L5.91909681,0 L7.2728759,2.68626462 C12.2080368,-0.957465716 16.4765929,-0.872589284 19.0713997,3.50748133 L11.8393091,9.60965007 C11.2976451,8.79066695 10.7575048,8.48987679 10.2303156,8.55613997 L11.8514985,11.7732546 C15.7345666,10.151668 21.3401414,6.98220333 24.1474999,12.5535221 C26.1191264,16.4667723 24.7242082,22.0864856 19.405083,26.7643682 L20.7421017,29.417129 L18.8657045,31 L17.4959269,28.2809761 L17.4959269,28.2809761 Z" id="Fill-93" fill="url(#linearGradient-12)" mask="url(#mask-11)"></path>
            </g>
            <path d="M202.379503,99.1231959 C207.985605,110.505651 204.300861,126.836802 194.149864,135.599047 C190.360813,138.869963 189.443217,140.624075 185.43346,140.946028 C184.776631,140.998175 180.886297,141.012534 180.240049,140.989106 C174.254513,140.769181 168.79051,137.293454 165.620497,130.855161 C160.014395,119.472706 163.699139,103.141555 173.850136,94.3793098 C177.656571,91.0932787 181.831859,89.3384112 185.859001,89.0285508 C186.698744,88.9643115 190.859671,89.0285508 190.859671,89.0285508 C190.859671,89.0285508 199.313796,92.898782 202.379503,99.1231959" id="Fill-96" fill="#B9692E"></path>
            <g id="Group-99" transform="translate(167.000000, 89.000000)">
                <mask id="mask-14" fill="white">
                    <use xlink:href="#path-13"></use>
                </mask>
                <g id="Clip-98"></g>
                <path d="M39.3800332,10.140533 C44.985347,21.5183134 41.3006241,37.8427577 31.149685,46.6014049 C20.9987458,55.3600521 8.22579565,53.2372473 2.62048183,41.859467 C-2.98558784,30.4816866 0.699135045,14.1572423 10.8500742,5.39859509 C21.0002575,-3.36005211 33.7739635,-1.23724733 39.3800332,10.140533" id="Fill-97" fill="url(#linearGradient-15)" mask="url(#mask-14)"></path>
            </g>
            <g id="Group-102" transform="translate(172.000000, 94.000000)">
                <mask id="mask-17" fill="white">
                    <use xlink:href="#path-16"></use>
                </mask>
                <g id="Clip-101"></g>
                <path d="M30.9410817,7.99589957 C35.3457521,16.9665785 32.4507439,29.8376175 24.4751416,36.7431364 C16.4987949,43.6494019 6.4634118,41.9754725 2.05874139,33.0047936 C-2.34592903,24.033368 0.549823537,11.162329 8.52542584,4.25681009 C16.5002837,-2.64945542 26.5371557,-0.975525984 30.9410817,7.99589957" id="Fill-100" fill="url(#linearGradient-18)" mask="url(#mask-17)"></path>
            </g>
            <g id="Group-105" transform="translate(173.000000, 96.000000)">
                <mask id="mask-20" fill="white">
                    <use xlink:href="#path-19"></use>
                </mask>
                <g id="Clip-104"></g>
                <path d="M29.0657298,7.4100836 C33.2037872,15.7250952 30.4838451,27.6543872 22.991545,34.0550333 C15.4992449,40.4556794 6.07157234,38.9037132 1.93427015,30.5894488 C-2.20378716,22.2751844 0.516154892,10.3458924 8.00845501,3.94524634 C15.5,-2.45539975 24.9284277,-0.904180829 29.0657298,7.4100836" id="Fill-103" fill="url(#linearGradient-21)" mask="url(#mask-20)"></path>
            </g>
            <g id="Group-108" transform="translate(179.000000, 102.000000)">
                <mask id="mask-23" fill="white">
                    <use xlink:href="#path-22"></use>
                </mask>
                <g id="Clip-107"></g>
                <path d="M11.5091552,14.7634659 L12.6016007,17.0636988 C13.0669426,16.456278 13.270068,15.7791531 12.9650106,15.1372633 C12.7109191,14.6026105 12.201259,14.5635456 11.5091552,14.7634659 Z M7.2634645,10.1024879 L6.24783736,7.96311048 C5.8393706,8.4816778 5.7381772,9.02935229 5.99226865,9.56400515 C6.23380324,10.0718488 6.68732692,10.1997671 7.2634645,10.1024879 Z M13.296659,22.8070041 C9.71574237,25.4802684 6.23306461,25.7391691 4.20993536,22.0992401 L9.63670811,17.2398738 C10.0636408,18.0012562 10.5555737,18.2088363 11.0615407,18.1000674 L9.81619713,15.4788896 C6.90596375,16.9411422 2.81760289,19.3057173 0.645268784,14.7312948 C-1.06910981,11.121239 0.82032597,6.60962682 4.10135558,3.44307249 L3.07317161,1.27611986 L4.49874278,0 L5.5276654,2.16618665 C9.27773009,-0.772106134 12.5218278,-0.703934065 14.493991,2.82875789 L8.99778632,7.74940254 C8.58562636,7.08912924 8.17642096,6.84631411 7.77534057,6.89993259 L9.00738861,9.4950671 C11.9589857,8.18677615 16.2179719,5.63070654 18.3518969,10.1239353 C19.8505932,13.2797659 18.7906478,17.8120596 14.7480825,21.5845027 L15.7637096,23.7238801 L14.3373998,25 L13.296659,22.8070041 L13.296659,22.8070041 Z" id="Fill-106" fill="url(#linearGradient-24)" mask="url(#mask-23)"></path>
            </g>
            <path d="M184.754169,38.7608832 C189.558738,48.6108036 186.401063,62.7438262 177.699597,70.3261772 C174.452434,73.1570329 173.665835,74.674566 170.228414,74.9531726 C169.665914,74.9987213 166.331517,75.0108677 165.777289,74.9903707 C160.647101,74.8005842 155.963606,71.7920883 153.245855,66.2207152 C148.441286,56.3707948 151.598961,42.2385314 160.299675,34.6554212 C163.563382,31.8116599 167.141428,30.2933678 170.593889,30.0246301 C171.312808,29.9692124 174.879574,30.0246301 174.879574,30.0246301 C174.879574,30.0246301 182.126659,33.3739826 184.754169,38.7608832" id="Fill-109" fill="#B9692E"></path>
            <g id="Group-112" transform="translate(154.000000, 30.000000)">
                <mask id="mask-26" fill="white">
                    <use xlink:href="#path-25"></use>
                </mask>
                <g id="Clip-111"></g>
                <path d="M33.7538077,8.77537677 C38.5591364,18.6213018 35.4007043,32.7485917 26.6999762,40.3278671 C17.999248,47.9079014 7.05076903,46.0707543 2.24619234,36.2240704 C-2.55913636,26.3781454 0.599295652,12.2516143 9.30002383,4.67158005 C18.000752,-2.90769542 28.949231,-1.07054825 33.7538077,8.77537677" id="Fill-110" fill="url(#linearGradient-27)" mask="url(#mask-26)"></path>
            </g>
            <g id="Group-115" transform="translate(158.000000, 34.000000)">
                <mask id="mask-29" fill="white">
                    <use xlink:href="#path-28"></use>
                </mask>
                <g id="Clip-114"></g>
                <path d="M27.1905342,7.0210115 C31.0616085,14.8975868 28.5170871,26.1991901 21.5084533,32.2624256 C14.4990601,38.3264222 5.68017898,36.8562702 1.80910474,28.9796949 C-2.06121017,21.1023587 0.482551837,9.80151638 7.49194499,3.73751983 C14.5005788,-2.32647671 23.31946,-0.856324709 27.1905342,7.0210115" id="Fill-113" fill="url(#linearGradient-30)" mask="url(#mask-29)"></path>
            </g>
            <g id="Group-118" transform="translate(159.000000, 36.000000)">
                <mask id="mask-32" fill="white">
                    <use xlink:href="#path-31"></use>
                </mask>
                <g id="Clip-117"></g>
                <path d="M25.315757,6.43536646 C28.9189044,13.6555946 26.5509037,24.0151834 20.0247792,29.5738401 C13.4994181,35.1324969 5.28851683,33.7850122 1.684606,26.5647841 C-1.91930483,19.3438027 0.449459271,8.98421395 6.97482038,3.42555719 C13.5001815,-2.13234637 21.7118461,-0.784861688 25.315757,6.43536646" id="Fill-116" fill="url(#linearGradient-33)" mask="url(#mask-32)"></path>
            </g>
            <g id="Group-121" transform="translate(164.000000, 41.000000)">
                <mask id="mask-35" fill="white">
                    <use xlink:href="#path-34"></use>
                </mask>
                <g id="Clip-120"></g>
                <path d="M10.2969804,12.4017924 L11.2750538,14.3338312 C11.6915981,13.8237491 11.8726375,13.2546677 11.6003112,12.7154593 C11.3732447,12.2666169 10.9160433,12.2337565 10.2969804,12.4017924 Z M6.49898699,8.48693055 L5.58995403,6.68932039 C5.22403949,7.12471994 5.13351975,7.58476475 5.36135333,8.034354 C5.57691305,8.46153846 5.98271763,8.56833458 6.49898699,8.48693055 Z M11.8964181,19.1583271 C8.69293996,21.403286 5.57614593,21.6206124 3.76651829,18.5638536 L8.62236524,14.4824496 C9.00438922,15.1209858 9.44471405,15.2957431 9.89654562,15.2038835 L8.78345969,13.0022405 C6.17833232,14.2307692 2.52072122,16.2165795 0.577615319,12.3749066 C-0.956617527,9.3420463 0.733339953,5.55190441 3.66986162,2.89245706 L2.74932191,1.07244212 L4.02503652,0 L4.94557623,1.82001494 C8.30094346,-0.648244959 11.203712,-0.590739358 12.9688469,2.3764003 L8.05086351,6.51008215 C7.68188051,5.95519044 7.31519886,5.75130695 6.95695549,5.79686333 L8.05853467,7.97610157 C10.6997165,6.87677371 14.511518,4.73039582 16.4201037,8.50485437 C17.7610232,11.1553398 16.8128673,14.9626587 13.1951462,18.1306945 L14.1041792,19.9283047 L12.8284646,21 L11.8964181,19.1583271 L11.8964181,19.1583271 Z" id="Fill-119" fill="url(#linearGradient-36)" mask="url(#mask-35)"></path>
            </g>
            <path d="M237.72105,100.745601 L90.1618896,143.641115 C85.5163134,144.992185 81.8638514,150.557537 82.0038964,156.071707 L85.6134413,298.147762 C85.7534862,303.661931 89.4616649,306.933853 98.0653925,305.763428 L241.83807,262.790387 C246.483646,261.44007 250.136861,255.874718 249.996063,250.360548 L249.679833,104.912465 C249.539788,99.3982952 242.367379,99.3945317 237.72105,100.745601" id="Fill-122" fill="#5B3429"></path>
            <path d="M242.720352,101.298339 L95.161853,144.29066 C90.5162976,145.644779 86.863852,151.222691 87.0038963,156.749306 L90.614178,299.145999 C90.7542223,304.672613 94.6340516,308.055269 99.279607,306.701905 L246.838106,263.708829 C251.483662,262.355465 255.13686,256.777553 254.996063,251.250939 L251.386534,108.854245 C251.24649,103.327631 247.366661,99.9442207 242.720352,101.298339" id="Fill-123" fill="#936945"></path>
            <path d="M253,147.832837 L252.007529,108.843816 C251.867149,103.32454 247.978021,99.9456226 243.320577,101.297943 L130,134.192104 C148.235053,167.997104 190.65923,171.392596 253,147.832837" id="Fill-124" fill="#A2714B"></path>
            <path d="M225.508258,115.498058 L220.031197,117.099515 L220.226699,117.770365 L225.70376,116.168908 L225.508258,115.498058 M214.553384,118.700972 L209.076324,120.302428 L209.271825,120.973278 L214.749638,119.371822 L214.553384,118.700972 M203.599263,121.903885 L198.12145,123.505342 L198.316952,124.175439 L203.794764,122.573982 L203.599263,121.903885 M192.644389,125.106799 L187.167328,126.707502 L187.36283,127.378352 L192.839891,125.776896 L192.644389,125.106799 M181.689515,128.308959 L176.212454,129.910416 L176.407956,130.581266 L181.885017,128.979809 L181.689515,128.308959 M170.734641,131.511873 L165.25758,133.113329 L165.453082,133.783426 L170.930895,132.182723 L170.734641,131.511873 M159.780519,134.714786 L154.302706,136.316243 L154.498208,136.98634 L159.976021,135.384883 L159.780519,134.714786 M148.825645,137.916947 L143.348585,139.518403 L143.543335,140.189253 L149.021147,138.587797 L148.825645,137.916947 M137.870772,141.11986 L132.393711,142.721317 L132.589213,143.392167 L138.066274,141.79071 L137.870772,141.11986 M126.915898,144.322774 L121.438837,145.92423 L121.634339,146.594327 L127.1114,144.992871 L126.915898,144.322774 M115.961776,147.524934 L110.631341,149.083475 L110.4787,149.130156 L110.686984,149.796488 L110.826843,149.754325 L116.157278,148.195784 L115.961776,147.524934 M105.7265,152.50624 C104.513636,154.002288 103.618839,155.82435 103.193246,157.749562 L103.874495,157.900145 C104.274522,156.086366 105.124203,154.357666 106.267889,152.946697 L105.7265,152.50624 M103,163.526702 L103.145123,169.238339 L103.842914,169.221021 L103.697791,163.509385 L103,163.526702 M103.290245,174.949975 L103.435368,180.661612 L104.132407,180.644294 L103.987285,174.932658 L103.290245,174.949975 M103.579738,186.373248 L103.724861,192.084885 L104.4219,192.067568 L104.27753,186.355931 L103.579738,186.373248 M103.869983,197.797274 L104.014354,203.508911 L104.712145,203.490841 L104.567023,197.779204 L103.869983,197.797274 M104.159477,209.220547 L104.304599,214.932184 L105.001639,214.914114 L104.856516,209.202477 L104.159477,209.220547 M104.44897,220.64382 L104.594092,226.355457 L105.291132,226.337387 L105.146761,220.62575 L104.44897,220.64382 M104.739215,232.067093 L104.883586,237.77873 L105.581377,237.761413 L105.436254,232.049776 L104.739215,232.067093 M105.028708,243.490366 L105.173831,249.202003 L105.87087,249.184686 L105.725748,243.473049 L105.028708,243.490366 M105.318201,254.913639 L105.463324,260.625276 L106.161115,260.607959 L106.015993,254.896322 L105.318201,254.913639 M105.608447,266.337665 L105.752817,272.049302 L106.450609,272.031232 L106.305486,266.319595 L105.608447,266.337665 M105.89794,277.760938 L106.043062,283.472575 L106.740102,283.454505 L106.595731,277.742868 L105.89794,277.760938 M106.787473,289.226375 C107.633395,291.218596 109.230495,292.594177 111.198297,293 L111.340412,292.31635 C109.607212,291.95495 108.203358,290.76308 107.42887,288.952312 L106.787473,289.226375 M116.934022,292.107792 L122.411083,290.506335 L122.215581,289.836238 L116.73852,291.436942 L116.934022,292.107792 M127.888144,288.904879 L133.365957,287.304175 L133.170455,286.633325 L127.693394,288.234782 L127.888144,288.904879 M138.843018,285.702718 L144.320831,284.101261 L144.125329,283.430411 L138.647516,285.031868 L138.843018,285.702718 M149.797891,282.499805 L155.275704,280.898348 L155.079451,280.228251 L149.60239,281.828955 L149.797891,282.499805 M160.752765,279.296891 L166.229826,277.695434 L166.034324,277.025337 L160.557263,278.626794 L160.752765,279.296891 M171.707639,276.093978 L177.1847,274.493274 L176.989198,273.822424 L171.512137,275.42388 L171.707639,276.093978 M182.661761,272.891817 L188.139574,271.29036 L187.944072,270.61951 L182.466259,272.220967 L182.661761,272.891817 M193.616635,269.688903 L199.094448,268.087447 L198.898946,267.41735 L193.421133,269.018806 L193.616635,269.688903 M204.571509,266.48599 L210.04857,264.885286 L209.853068,264.214436 L204.376007,265.815893 L204.571509,266.48599 M215.526382,263.283829 L221.003443,261.682373 L220.807941,261.011523 L215.33088,262.612979 L215.526382,263.283829 M226.480504,260.080916 L231.958317,258.479459 L231.762815,257.809362 L226.285002,259.410066 L226.480504,260.080916 M237.435378,256.878002 L240.288202,256.044522 C241.189015,255.781754 242.047719,255.36012 242.841006,254.81576 L242.446242,254.239778 C241.707847,254.746491 240.916064,255.134244 240.093452,255.373672 L237.239876,256.207905 L237.435378,256.878002 M246.637502,250.397637 C247.497711,248.714112 248,246.820523 248,244.918652 L247.998496,244.732681 L247.301457,244.744728 L247.302961,244.918652 C247.302961,246.696291 246.830748,248.485978 246.016408,250.079905 L246.637502,250.397637 M247.854126,239.018033 L247.709003,233.306396 L247.011963,233.324466 L247.157086,239.036103 L247.854126,239.018033 M247.564632,227.59476 L247.41951,221.883123 L246.721718,221.90044 L246.866841,227.61283 L247.564632,227.59476 M247.274387,216.171487 L247.129265,210.45985 L246.432225,210.477167 L246.577348,216.188804 L247.274387,216.171487 M246.984894,204.748214 L246.839771,199.036577 L246.142732,199.053894 L246.287103,204.765531 L246.984894,204.748214 M246.694649,193.324188 L246.550278,187.612551 L245.852487,187.630621 L245.997609,193.342258 L246.694649,193.324188 M246.405156,181.900915 L246.260033,176.189278 L245.562994,176.207348 L245.708116,181.918985 L246.405156,181.900915 M246.115662,170.477642 L245.97054,164.766005 L245.272748,164.784075 L245.417871,170.495712 L246.115662,170.477642 M245.825417,159.054369 L245.680295,153.342732 L244.983255,153.360802 L245.128378,159.072439 L245.825417,159.054369 M245.535924,147.631096 L245.390802,141.919459 L244.693762,141.936776 L244.838133,147.648413 L245.535924,147.631096 M245.245679,136.207823 L245.101308,130.496186 L244.403517,130.513503 L244.54864,136.22514 L245.245679,136.207823 M244.956186,124.78455 L244.814823,119.201662 L244.810311,119.068396 L244.113272,119.094748 L244.117031,119.218979 L244.258394,124.801867 L244.956186,124.78455 M242.616178,113.66395 C241.51836,112.601582 240.06939,111.999248 238.462515,112 C237.992558,112 237.509067,112.051199 237.016553,112.155855 L237.161675,112.839504 C237.608322,112.744637 238.042938,112.698709 238.462515,112.698709 C239.895694,112.700215 241.156682,113.226504 242.131935,114.166146 L242.616178,113.66395 M236.463132,112.295898 L230.986071,113.897354 L231.181573,114.567451 L236.658634,112.965995 L236.463132,112.295898" id="Fill-125" fill="#F1AB5A"></path>
            <g id="Group-128" transform="translate(253.000000, 157.000000)">
                <mask id="mask-38" fill="white">
                    <use xlink:href="#path-37"></use>
                </mask>
                <g id="Clip-127"></g>
                <polygon id="Fill-126" fill="#C09D82" mask="url(#mask-38)" points="0 45 1 45 1 0 0 0"></polygon>
            </g>
            <path d="M253.8065,176 C253.7835,175.982872 253.7605,175.965744 253.7375,175.94936 L253.1935,160 C253.2295,160.004468 253.2655,160.008936 253.3025,160.014149 L253.8065,176" id="Fill-129" fill="#2F351F"></path>
            <path d="M213.177463,214 C210.694421,213.999249 208.79817,211.914386 208.717705,208.800981 L208.002625,177.573085 C207.908496,173.915379 210.357377,170.223137 213.473515,169.326728 L252.859061,158 L254,202.451046 L247.253809,204.391012 L247.121725,199.253556 L246.418032,199.270824 L246.554671,204.592216 L214.528674,213.80255 C214.06486,213.935435 213.612431,214 213.177463,214 M246.829468,187.862262 L246.125016,187.88028 L246.271524,193.575552 L246.975217,193.557534 L246.829468,187.862262 M246.536453,176.471719 L245.83276,176.489737 L245.979268,182.185009 L246.68296,182.166991 L246.536453,176.471719 M246.244196,165.081176 L245.539744,165.099194 L245.686252,170.794466 L246.390704,170.776448 L246.244196,165.081176" id="Fill-130" fill="#744B30"></path>
            <path d="M246.184234,204 L246.024801,198.612754 L246.845881,198.595272 L247,203.796306 L246.184234,204 M245.853853,192.847002 L245.682905,187.08125 L246.504872,187.063008 L246.674934,192.82876 L245.853853,192.847002 M245.512843,181.315497 L245.341895,175.549745 L246.162976,175.531504 L246.333924,181.297256 L245.512843,181.315497 M245.170948,169.783993 L245,164.018241 L245.821966,164 L245.992914,169.765752 L245.170948,169.783993" id="Fill-131" fill="#BC7A41"></path>
            <path d="M259.562652,157.197151 L216.397068,169.765704 C213.325626,170.66046 210.909785,174.345897 211.002587,177.996862 L211.70833,205.810744 C211.801132,209.462459 214.366654,211.697101 217.438096,210.803095 L260.603679,198.234541 C263.675121,197.339785 266.090214,193.654348 265.997413,190.002633 L265.292418,162.188752 C265.198868,158.537786 262.634842,156.302394 259.562652,157.197151" id="Fill-132" fill="#936945"></path>
            <path d="M246.755919,164.217051 L241.213042,165.825576 L241.410079,166.501931 L246.952955,164.893406 L246.755919,164.217051 Z M235.669405,167.434102 L230.125768,169.042627 L230.322804,169.718982 L235.866441,168.110457 L235.669405,167.434102 Z M224.582892,170.651153 L219.110005,172.239942 L219.034691,172.261956 L219.240856,172.935274 L219.306281,172.915538 L224.779928,171.327508 L224.582892,170.651912 L224.582892,170.651153 Z M214.692289,176.245694 C214.252571,177.192288 214,178.223141 214,179.258548 L214.001522,179.418718 L214.069229,182.064928 L214.774451,182.04671 L214.707504,179.400499 L214.705222,179.258548 C214.705222,178.338523 214.931927,177.404835 215.332846,176.542501 L214.692289,176.245694 Z M214.216055,187.823434 L214.36212,193.58194 L215.068103,193.563722 L214.921277,187.805216 L214.216055,187.823434 Z M214.508947,199.340446 L214.578175,202.068639 C214.608606,203.27788 214.988223,204.321638 215.62802,205.096675 L216.173483,204.648808 C215.644757,204.008131 215.311545,203.125302 215.284158,202.050421 L215.214168,199.322987 L214.508947,199.340446 Z M221.307072,206 L226.850709,204.391475 L226.653673,203.71512 L221.110036,205.323645 L221.307072,206 Z M232.394346,202.782949 L237.937222,201.174424 L237.740186,200.498828 L232.19731,202.106594 L232.394346,202.782949 Z M243.480859,199.565898 L249.024496,197.957373 L248.82746,197.281777 L243.283823,198.890302 L243.480859,199.565898 Z M254.567373,196.349606 L258.890755,195.09482 C259.321344,194.969569 259.736717,194.793458 260.132311,194.574838 L259.78997,193.959211 C259.43774,194.154299 259.070294,194.309155 258.693719,194.418465 L254.370337,195.673251 L254.568133,196.349606 L254.567373,196.349606 Z M263.742103,189.914745 C263.90947,189.315059 264,188.695636 264,188.075454 L263.998478,187.915285 L263.900341,184.075016 L263.195119,184.093234 L263.292496,187.933503 L263.294778,188.075454 C263.294778,188.627317 263.213377,189.182976 263.061986,189.726489 L263.742103,189.914745 Z M263.754275,178.31651 L263.607449,172.558003 L262.902227,172.575463 L263.048293,178.334728 L263.754275,178.31651 Z M263.460623,166.799497 L263.421825,165.265363 C263.379983,163.523996 262.604011,162.122704 261.386799,161.379548 L261.017832,161.979994 C262.006816,162.586512 262.674,163.734266 262.716603,165.283582 L262.755401,166.816957 L263.460623,166.799497 Z M257.843193,161 L252.299556,162.608525 L252.496592,163.28488 L258.040229,161.676355 L257.843193,161 Z" id="Fill-133" fill="#F1AB5A"></path>
            <path d="M231.996964,186.097382 C232.105625,190.387733 229.284276,194.717665 225.69536,195.768521 C222.107985,196.819378 219.110927,194.193013 219.003036,189.902662 C218.894375,185.612311 221.715724,181.282379 225.30387,180.231523 C228.892786,179.180666 231.888302,181.806255 231.996964,186.097382" id="Fill-134" fill="#B2927B"></path>
            <path d="M255,251 L254,218 C254.000908,218 254.000908,218 254.000908,218 L255,251" id="Fill-135" fill="#DCCAB7"></path>
            <path d="M97.3251651,307 C97.7035226,306.916904 98.0773579,306.831541 98.4459173,306.746934 C98.4459173,303.520527 96.221748,227.248611 95,180 C105.152342,226.154005 132.46719,256.836972 171.167434,256.836972 C193.097095,256.836972 218.688986,246.976451 246.872851,224.492077 L246.955758,227.76683 L247.655192,227.7487 L247.558718,223.942885 C249.745956,222.185019 251.948268,220.350855 254.167161,218.438882 L254.996231,251.178107 C255,251.280844 255,251.383582 255,251.486319 C255,252.500095 254.874886,253.51236 254.641239,254.498186 C253.621482,258.793514 250.542617,262.571378 246.82989,263.653142 L99.1197253,306.705386 C98.8220137,306.792259 98.5273169,306.859492 98.2363886,306.907839 C98.2363886,306.907839 98.2356349,306.907839 98.2356349,306.908594 C98.2198072,306.91086 98.2047332,306.913126 98.1896592,306.915393 C97.8972236,306.962984 97.6093101,306.99018 97.3251651,307 M107.189593,289.310288 L106.546687,289.585262 C107.3946,291.584108 108.995459,292.964263 110.967892,293.371436 L111.110342,292.685513 C109.373063,292.32291 107.965904,291.127077 107.189593,289.310288 M122.011108,290.197153 L116.521155,291.80318 L116.717117,292.476261 L122.20707,290.869479 L122.011108,290.197153 M132.991766,286.983589 L127.501814,288.590371 L127.697022,289.262696 L133.187728,287.65667 L132.991766,286.983589 M143.972424,283.770025 L138.481718,285.376807 L138.67768,286.049888 L144.168386,284.443105 L143.972424,283.770025 M106.354493,278.063568 L105.65506,278.081699 L105.800524,283.812328 L106.499204,283.794198 L106.354493,278.063568 M154.952328,280.557216 L149.462376,282.163242 L149.658338,282.836323 L155.149044,281.229541 L154.952328,280.557216 M165.932987,277.343651 L160.443034,278.950434 L160.638996,279.622759 L166.128949,278.015977 L165.932987,277.343651 M176.913645,274.130087 L171.423693,275.736869 L171.619655,276.409195 L177.109607,274.803168 L176.913645,274.130087 M187.894303,270.916523 L182.403597,272.523305 L182.599559,273.196386 L188.090265,271.589604 L187.894303,270.916523 M106.063565,266.602309 L105.364885,266.620439 L105.509596,272.351069 L106.209029,272.332939 L106.063565,266.602309 M198.874961,267.703714 L193.384255,269.310496 L193.580217,269.982822 L199.070923,268.376039 L198.874961,267.703714 M209.854866,264.49015 L204.364913,266.096932 L204.560875,266.769257 L210.050828,265.163231 L209.854866,264.49015 M220.835524,261.276585 L215.345572,262.883368 L215.541534,263.556448 L221.031486,261.949666 L220.835524,261.276585 M105.773391,255.14105 L105.073957,255.158424 L105.219421,260.889054 L105.918855,260.871679 L105.773391,255.14105 M231.816182,258.063777 L226.325476,259.669803 L226.521438,260.342884 L232.012144,258.736102 L231.816182,258.063777 M242.524754,254.482322 C241.784621,254.990721 240.990974,255.379763 240.166426,255.619987 L237.306134,256.456994 L237.502096,257.12932 L240.361635,256.293068 C241.264568,256.029426 242.125293,255.60639 242.920447,255.06022 L242.524754,254.482322 M248.090077,244.943611 L247.391397,244.955698 L247.392904,245.1302 C247.392904,246.913751 246.91958,248.709389 246.103323,250.308617 L246.725879,250.627405 C247.588112,248.938281 248.091584,247.038396 248.091584,245.1302 L248.090077,244.943611 M105.482462,243.67979 L104.783782,243.697165 L104.929246,249.427795 L105.627926,249.41042 L105.482462,243.67979 M247.799902,233.47933 L247.101222,233.49746 L247.246686,239.22809 L247.945366,239.20996 L247.799902,233.47933 M105.192288,232.218531 L104.493608,232.235906 L104.638318,237.966535 L105.337752,237.949161 L105.192288,232.218531 M104.902113,220.756516 L104.202679,220.774646 L104.348144,226.505276 L105.046824,226.487146 L104.902113,220.756516 M104.611185,209.295257 L103.912505,209.313387 L104.057969,215.044017 L104.756649,215.025887 L104.611185,209.295257" id="Fill-136" fill="#81583A"></path>
            <path d="M111.046624,293 C109.076641,292.593197 107.47777,291.214291 106.63091,289.217257 L107.273018,288.942532 C108.048365,290.757675 109.453776,291.952425 111.188897,292.314699 L111.046624,293 M116.788709,292.105636 L116.59299,291.433165 L122.076123,289.828594 L122.271842,290.50031 L116.788709,292.105636 M127.754975,288.894984 L127.560009,288.223267 L133.043143,286.617941 L133.238861,287.290412 L127.754975,288.894984 M138.721995,285.685086 L138.526276,285.012615 L144.010162,283.407289 L144.205881,284.07976 L138.721995,285.685086 M105.885674,283.449554 L105.74039,277.724117 L106.438956,277.706003 L106.583486,283.43144 L105.885674,283.449554 M149.689014,282.474433 L149.493296,281.801962 L154.976429,280.197391 L155.1729,280.869107 L149.689014,282.474433 M160.656034,279.263781 L160.460315,278.592064 L165.943449,276.986738 L166.139167,277.658454 L160.656034,279.263781 M171.623053,276.053128 L171.427335,275.381412 L176.910468,273.776086 L177.106187,274.448557 L171.623053,276.053128 M182.58932,272.84323 L182.393602,272.170759 L187.877488,270.565433 L188.073206,271.237904 L182.58932,272.84323 M105.595107,271.998679 L105.450576,266.273242 L106.148389,266.255128 L106.293672,271.980566 L105.595107,271.998679 M193.55634,269.632578 L193.360621,268.960861 L198.844507,267.355535 L199.040226,268.027251 L193.55634,269.632578 M204.523359,266.421925 L204.327641,265.750209 L209.810774,264.144883 L210.006493,264.817354 L204.523359,266.421925 M215.490379,263.212027 L215.29466,262.539556 L220.777793,260.93423 L220.973512,261.606701 L215.490379,263.212027 M105.305293,260.54705 L105.160009,254.821612 L105.858574,254.804253 L106.003858,260.529691 L105.305293,260.54705 M226.456645,260.001375 L226.260927,259.328904 L231.744813,257.724332 L231.940532,258.396048 L226.456645,260.001375 M237.423665,256.790722 L237.227946,256.119006 L240.084686,255.282757 C240.90821,255.04275 241.70087,254.654061 242.440085,254.146123 L242.835286,254.723497 C242.04112,255.269172 241.181463,255.691825 240.279652,255.955228 L237.423665,256.790722 M246.635992,250.294698 L246.014208,249.976199 C246.829452,248.37842 247.302188,246.584409 247.302188,244.802474 L247.300682,244.62813 L247.998494,244.616054 L248,244.802474 C248,246.708941 247.497154,248.607105 246.635992,250.294698 M105.015479,249.096175 L104.870195,243.370738 L105.568008,243.353379 L105.713291,249.078816 L105.015479,249.096175 M247.156151,238.905712 L247.010868,233.180274 L247.70868,233.162161 L247.853964,238.887598 L247.156151,238.905712 M104.724912,237.6453 L104.580381,231.919863 L105.278193,231.902504 L105.423477,237.627941 L104.724912,237.6453 M246.865585,227.454837 L246.782781,224.183051 C247.011621,224.000404 247.238203,223.819267 247.467796,223.634357 L247.56415,227.436723 L246.865585,227.454837 M104.435098,226.194426 L104.289814,220.468988 L104.988379,220.450875 L105.13291,226.176312 L104.435098,226.194426 M104.145283,214.743551 L104,209.018114 L104.697812,209 L104.843096,214.725437 L104.145283,214.743551" id="Fill-137" fill="#D08E4B"></path>
            <path d="M179.952298,190.951229 C180.41541,196.57582 177.454276,202.276024 173.339025,203.683482 C169.22304,205.09094 165.510814,201.672614 165.047702,196.048771 C164.584589,190.42418 167.545724,184.723976 171.661708,183.316518 C175.776959,181.90906 179.489186,185.327386 179.952298,190.951229" id="Fill-138" fill="#4B2B22"></path>
            <polyline id="Fill-139" fill="#4B2B22" points="172.63412 192 166 230 185 223.510293 172.63412 192"></polyline>
            <path d="M81.9168187,142 C74.2398106,145.83861 84.361605,147.963903 94.7472089,144.980072 C94.7472089,159.515067 99,302.172119 99,306.600127 C90.1669302,308.621675 78.1310007,310.450766 78.1310007,296.878055 C78.1310007,274.111025 74.2822627,165.762393 74.0169371,156.032051 C73.7516114,146.301709 76.613338,144.142585 81.9168187,142" id="Fill-140" fill="#936945"></path>
            <path d="M89.1429698,308 C83.1831165,308 78.131417,305.671724 78.131417,296.878102 C78.131417,282.295741 76.5523818,232.604299 75.3478274,196.204404 C75.3379726,195.919478 75.328876,195.63831 75.3197793,195.355639 C75.0696201,187.827271 74.8376543,180.887549 74.639043,174.977773 C74.6140271,174.219974 74.5890112,173.480218 74.5647533,172.757002 C74.2751751,164.116744 74.0712575,158.019021 74.0174353,156.032055 C74.0060645,155.614063 74,155.210355 74,154.819427 C74.0022742,146.116771 76.84196,144.050868 81.9171594,142 C80.0318688,142.942738 79.2207465,143.781729 79.2222627,144.467356 C79.2245368,145.658934 81.6851936,146.386662 85.2389703,146.386662 C87.9687377,146.386662 91.3428545,145.958145 94.7472937,144.980073 C94.7472937,159.515072 99,302.172168 99,306.600178 C95.8896874,307.312117 92.3813942,308 89.1429698,308" id="Fill-141" fill="#64412B"></path>
            <path d="M208.201087,201 L165.080138,196.282266 C164.797503,193.810492 165.288156,190.767725 166.148118,189 L209,193.694925 L208.201087,201" id="Fill-142" fill="#F9C737"></path>
            <path d="M183.556276,196.029842 C175.242398,195.12203 169.986036,192.930812 168.970839,189.314009 L166.135445,189 C165.284976,190.767725 164.799739,193.810492 165.079253,196.282266 L207.724212,201 L208,198.454476 C201.147797,197.807451 190.245243,196.761262 183.556276,196.029842" id="Fill-143" fill="#F1B435"></path>
            <path d="M210.940257,198.527048 C210.516494,202.382657 207.961542,205.271123 205.233373,204.979759 C202.505204,204.688395 200.636161,201.327036 201.059924,197.47219 C201.482141,193.617343 204.037866,190.728877 206.766035,191.020241 C209.494977,191.311605 211.363247,194.672964 210.940257,198.527048" id="Fill-144" fill="#ED9834"></path>
            <path d="M226.255082,189.369427 C218.955266,189.369427 212.758157,193.31676 212.385508,198.436554 C211.988472,203.898633 218.345614,208.999369 226.267275,209.575689 C234.180553,210.152771 241.217457,206.024766 241.614492,200.562687 C242.011528,195.100607 235.654386,189.999109 227.731963,189.423552 C227.235859,189.38696 226.743565,189.369427 226.255082,189.369427 Z M227.758635,217 C227.089543,217 226.415115,216.976368 225.733068,216.926817 C213.623863,216.045566 204.338868,207.511305 205.03692,197.902162 C205.736495,188.29302 216.165348,181.201084 228.266932,182.072424 C240.376137,182.952913 249.661132,191.487936 248.96308,201.097078 C248.303895,210.164968 238.983846,217 227.758635,217 L227.758635,217 Z" id="Fill-145" fill="#F9C737"></path>
            <path d="M226.269417,209.740216 C218.346958,209.176668 211.989176,204.188968 212.386251,198.847931 C212.458655,197.870667 212.759701,196.93962 213.240612,196.070444 C211.391657,194.022736 210.104401,191.62691 209.582334,189 C206.963616,191.562803 205.302148,194.766679 205.036923,198.325382 C204.338802,207.72158 213.624731,216.066716 225.735156,216.928438 C226.417272,216.976892 227.091767,217 227.760927,217 C238.987268,217 248.308256,210.316437 248.967508,201.449497 C249.004853,200.94782 249.007139,200.450615 248.988848,199.956392 C246.917348,201.166977 244.218606,202.08237 241.228725,202.670518 C239.616797,207.114051 233.294073,210.241148 226.269417,209.740216" id="Fill-146" fill="#F1B435"></path>
            <path d="M227,184.07709 C229.246257,183.845433 231.54255,184.153793 233.735691,184.76199 C235.936531,185.367863 238.049613,186.331681 239.979485,187.607733 C241.888572,188.907027 243.615989,190.542574 244.863824,192.514372 C246.123975,194.469125 246.890689,196.736112 247,199 C246.210962,196.871698 245.167122,194.947161 243.816135,193.274425 C242.463608,191.609437 240.851661,190.178431 239.062661,188.991478 C237.288288,187.780507 235.34225,186.811266 233.325392,185.988456 C231.298526,185.181917 229.203148,184.535756 227,184.07709" id="Fill-147" fill="#FFFDEF"></path>
            <path d="M284.630186,81.5 L284.260372,81.5 C284.258941,82.472103 283.472103,83.258226 282.500715,83.260372 C281.527897,83.258226 280.741774,82.472103 280.739628,81.5 C280.741774,80.527897 281.527897,79.7410587 282.500715,79.739628 C283.472103,79.7410587 284.258941,80.527897 284.260372,81.5 L285,81.5 C285,80.1194564 283.881259,79 282.500715,79 C281.118741,79 280,80.1194564 280,81.5 C280,82.8812589 281.118741,84 282.500715,84 C283.881259,84 285,82.8805436 285,81.5 L284.630186,81.5" id="Fill-148" fill="#829B54"></path>
            <path d="M274.590333,57.9996036 L274.180666,57.9996036 C274.179873,58.0994847 274.099842,58.1795482 274.000792,58.1795482 C273.900951,58.1795482 273.820127,58.098692 273.819334,57.9996036 C273.820127,57.9005153 273.900951,57.8196591 274.000792,57.8196591 C274.099842,57.8196591 274.179873,57.8997226 274.180666,57.9996036 L275,57.9996036 C275,57.4470868 274.552298,57 274.000792,57 C273.448494,57 273.000792,57.4462941 273,57.9996036 C273.000792,58.5529132 273.448494,58.9992073 274.000792,59 C274.552298,58.9992073 275,58.5521205 275,57.9996036 L274.590333,57.9996036" id="Fill-149" fill="#829B54"></path>
            <path d="M292.64788,124 L292.29576,124 C292.294398,124.715696 291.715478,125.294518 290.999659,125.29588 C290.284522,125.294518 289.705602,124.715696 289.70424,124 C289.705602,123.284304 290.284522,122.705482 290.999659,122.70412 C291.716159,122.705482 292.294398,123.284304 292.29576,124 L293,124 C293,122.895472 292.105057,122.000681 290.999659,122 C289.894943,122.000681 289,122.895472 289,124 C289.000681,125.104528 289.894943,125.999319 290.999659,126 C292.105057,125.999319 293,125.104528 293,124 L292.64788,124" id="Fill-150" fill="#829B54"></path>
            <path d="M138.630239,71.5003576 L138.259763,71.5003576 C138.258332,72.4723216 137.472322,73.2590473 136.500358,73.2604778 C135.528394,73.2590473 134.741668,72.4723216 134.740237,71.5003576 C134.741668,70.5283936 135.528394,69.7416679 136.500358,69.7402374 C137.472322,69.7416679 138.258332,70.5283936 138.259763,71.5003576 L139,71.5003576 C138.999285,70.1192962 137.880704,69.0007152 136.500358,69 C135.119296,69.0007152 134.000715,70.1192962 134,71.5003576 C134.000715,72.8807038 135.119296,74 136.500358,74 C137.880704,74 138.999285,72.8807038 139,71.5003576 L138.630239,71.5003576" id="Fill-151" fill="#829B54"></path>
            <path d="M113.624068,69 L113.248137,69 C113.246682,69.6892039 112.688966,70.2468193 111.999636,70.2482734 C111.311034,70.2468193 110.75259,69.6892039 110.751863,69 C110.75259,68.3107961 111.311034,67.7531807 111.999636,67.7524537 C112.688966,67.7531807 113.246682,68.3107961 113.248137,69 L114,69 C113.999273,67.8956743 113.104163,67.000727 111.999636,67 C110.89511,67.000727 110,67.8956743 110,69 C110,70.1050527 110.89511,70.999273 111.999636,71 C113.104163,70.999273 113.999273,70.1050527 114,69 L113.624068,69" id="Fill-152" fill="#829B54"></path>
            <path d="M129.630186,47.5 L129.260372,47.5 C129.258226,48.472103 128.471388,49.2589413 127.5,49.260372 C126.527897,49.2589413 125.741059,48.472103 125.739628,47.5 C125.741059,46.527897 126.527182,45.741774 127.5,45.739628 C128.472103,45.741774 129.258226,46.527897 129.260372,47.5 L130,47.5 C129.999285,46.1194564 128.880544,45.0007153 127.5,45 C126.118741,45.0007153 125,46.1194564 125,47.5 C125,48.8812589 126.118741,50 127.5,50 C128.880544,50 129.999285,48.8812589 130,47.5 L129.630186,47.5" id="Fill-153" fill="#829B54"></path>
            <path d="M84.6134098,92.5 L84.2268195,92.5 C84.2260718,92.9007976 83.9007976,93.2260718 83.5,93.2268195 C83.0984546,93.2260718 82.7739282,92.9015454 82.7731805,92.5 C82.7739282,92.0984546 83.0984546,91.7739282 83.5,91.7731805 C83.9007976,91.7739282 84.2260718,92.0984546 84.2268195,92.5 L85,92.5 C84.9992522,91.6707378 84.3277667,91 83.5,91 C82.6714855,91 82,91.6714855 82,92.5 C82,93.3285145 82.6714855,93.9992522 83.5,94 C84.3277667,93.9992522 84.9992522,93.3285145 85,92.5 L84.6134098,92.5" id="Fill-154" fill="#829B54"></path>
            <path d="M14.6462942,136.5 L14.2925884,136.5 C14.2919042,136.937272 13.9375143,137.291743 13.5003421,137.292427 C13.0624857,137.291743 12.7080958,136.937272 12.7074116,136.5 C12.7080958,136.062728 13.0624857,135.708257 13.5003421,135.707573 C13.9375143,135.708257 14.2919042,136.062728 14.2925884,136.5 L15,136.5 C14.9993158,135.671305 14.3288483,135 13.5003421,135 C12.6718358,135 12.0006842,135.671305 12,136.5 C12.0006842,137.328695 12.6718358,138 13.5003421,138 C14.3288483,138 15,137.328695 15,136.5 L14.6462942,136.5" id="Fill-155" fill="#829B54"></path>
            <path d="M22.6268832,102 L22.2537664,102 C22.2537664,102.899152 21.8900316,103.710265 21.3011276,104.300559 C20.7107803,104.890132 19.899594,105.253112 19.0003608,105.253834 C18.100406,105.253112 17.2892197,104.890132 16.6988724,104.300559 C16.1099684,103.710265 15.7462336,102.899152 15.7462336,102 C15.7462336,101.100126 16.1099684,100.289013 16.6988724,99.6994407 C17.2892197,99.1098683 18.100406,98.746888 19.0003608,98.7461663 C19.899594,98.746888 20.7107803,99.1098683 21.3011276,99.6994407 C21.8900316,100.289013 22.2537664,101.100126 22.2537664,102 L23,102 C23,99.7910879 21.2094723,98.0007216 19.0003608,98 C16.7905277,98.0007216 15,99.7910879 15,102 C15,104.208912 16.7905277,105.999278 19.0003608,106 C21.2094723,105.999278 23,104.208912 23,102 L22.6268832,102" id="Fill-156" fill="#829B54"></path>
            <path d="M4.60945762,161.5 L4.21815984,161.5 C4.21664904,162.448927 3.4491615,163.217286 2.5003777,163.218797 C1.5508385,163.217286 0.783350959,162.448927 0.781840157,161.5 C0.783350959,160.551073 1.5508385,159.782714 2.5003777,159.781203 C3.4491615,159.782714 4.21664904,160.551073 4.21815984,161.5 L5,161.5 C4.9992446,160.118918 3.88049554,159 2.5003777,159 C1.11950446,159 0.000755401118,160.118918 0,161.5 C0.000755401118,162.881082 1.11950446,164 2.5003777,164 C3.88049554,164 4.9992446,162.881082 5,161.5 L4.60945762,161.5" id="Fill-157" fill="#829B54"></path>
            <path d="M22.5192934,187.999535 L22.0385867,187.999535 L21.9995351,188.038587 L21.9614133,187.999535 L21.9995351,187.961413 L22.0385867,187.999535 L23,187.999535 C23,187.447234 22.5518364,187 21.9995351,187 C21.4472338,187 21,187.447234 21,187.999535 C21,188.551836 21.4472338,189 21.9995351,189 C22.5518364,189 23,188.551836 23,187.999535 L22.5192934,187.999535" id="Fill-158" fill="#829B54"></path>
            <path d="M17.6076539,234.500379 L17.2153079,234.500379 C17.2122723,235.999024 15.9995663,237.212358 14.5,237.214634 C13.0004337,237.212358 11.7877277,235.999024 11.7846921,234.500379 C11.7877277,233.000976 13.0004337,231.787642 14.5,231.784607 C15.9995663,231.787642 17.2122723,233.000976 17.2153079,234.500379 L18,234.500379 C17.9992411,232.566938 16.4328925,231 14.5,231 C12.5663487,231 11,232.566938 11,234.500379 C11,236.432304 12.5663487,237.999241 14.5,238 C16.4328925,237.999241 17.9992411,236.432304 18,234.500379 L17.6076539,234.500379" id="Fill-159" fill="#829B54"></path>
            <path d="M55.6093986,264.5 L55.2187972,264.5 C55.2172862,265.449683 54.4489272,266.217286 53.5,266.218797 C52.5510728,266.217286 51.7827138,265.449683 51.7812028,264.5 C51.7827138,263.551073 52.5510728,262.783469 53.5,262.781203 C54.4489272,262.783469 55.2172862,263.551073 55.2187972,264.5 L56,264.5 C56,263.119674 54.8810819,262.000756 53.5,262 C52.1189181,262.000756 51,263.119674 51,264.5 C51,265.881082 52.1189181,267 53.5,267 C54.8810819,267 56,265.881082 56,264.5 L55.6093986,264.5" id="Fill-160" fill="#829B54"></path>
            <path d="M55.6093986,31.5 L55.2187972,31.5 C55.2172862,32.4489272 54.4489272,33.2172862 53.5,33.2187972 C52.5510728,33.2172862 51.7827138,32.4489272 51.7812028,31.5 C51.7827138,30.5510728 52.5510728,29.7834693 53.5,29.7812028 C54.4489272,29.7834693 55.2172862,30.5510728 55.2187972,31.5 L56,31.5 C56,30.1189181 54.8810819,29.0007555 53.5,29 C52.1189181,29.0007555 51,30.1189181 51,31.5 C51,32.8810819 52.1189181,34 53.5,34 C54.8810819,34 56,32.8810819 56,31.5 L55.6093986,31.5" id="Fill-161" fill="#829B54"></path>
            <path d="M237.646133,1.5 L237.292266,1.5 C237.291581,1.9379562 236.937029,2.2917427 236.499658,2.29242701 C236.062286,2.2917427 235.708419,1.9379562 235.707734,1.5 C235.708419,1.0627281 236.062286,0.708257299 236.499658,0.707572993 C236.937029,0.708257299 237.291581,1.0627281 237.292266,1.5 L238,1.5 C238,0.671304745 237.328542,0 236.499658,0 C235.671458,0 235,0.671304745 235,1.5 C235,2.32869526 235.671458,3 236.499658,3 C237.328542,3 238,2.32869526 238,1.5 L237.646133,1.5" id="Fill-162" fill="#829B54"></path>
            <path d="M317.624312,50.5003633 L317.248625,50.5003633 C317.248625,51.260301 316.94197,51.9446809 316.443476,52.4437987 C315.944981,52.9414634 315.259732,53.248054 314.500363,53.2487805 C313.739541,53.248054 313.055019,52.9414634 312.556524,52.4437987 C312.05803,51.9446809 311.751375,51.260301 311.751375,50.5003633 C311.751375,49.739699 312.05803,49.0553191 312.556524,48.5569279 C313.055019,48.0585366 313.739541,47.751946 314.500363,47.751946 C315.259732,47.751946 315.944981,48.0585366 316.443476,48.5569279 C316.94197,49.0553191 317.248625,49.7404255 317.248625,50.5003633 L318,50.5003633 C318,48.5670991 316.432576,47.0007265 314.500363,47 C312.566698,47.0007265 311,48.5670991 311,50.5003633 C311,52.4329009 312.566698,53.9992735 314.500363,54 C316.432576,53.9992735 318,52.4329009 318,50.5003633 L317.624312,50.5003633" id="Fill-163" fill="#829B54"></path>
            <path d="M327.675251,163 L327.350503,163 C327.349874,163.193467 327.193467,163.349874 327,163.350503 C326.806533,163.349874 326.650126,163.193467 326.649497,163 C326.650126,162.805905 326.806533,162.650126 327,162.649497 C327.193467,162.650126 327.349874,162.806533 327.350503,163 L328,163 C328,162.447236 327.552136,162 327,162 C326.447236,162 326,162.447864 326,163 C326,163.551508 326.447236,164 327,164 C327.552136,163.999372 327.999372,163.552136 328,163 L327.675251,163" id="Fill-164" fill="#829B54"></path>
            <path d="M288.613265,213.999626 L288.22653,213.999626 C288.224286,215.229398 287.230146,216.224286 286.000374,216.22653 C284.770602,216.224286 283.775714,215.229398 283.77347,213.999626 C283.775714,212.769854 284.770602,211.775714 286.000374,211.77347 C287.230146,211.775714 288.224286,212.769854 288.22653,213.999626 L289,213.999626 C289,212.341977 287.657275,211 286.000374,211 C284.343473,211 283,212.341977 283,213.999626 C283,215.656527 284.343473,217 286.000374,217 C287.658023,217 289,215.656527 289,213.999626 L288.613265,213.999626" id="Fill-165" fill="#829B54"></path>
        </g>
    </g>
</svg>